<svg width="469" height="80" viewBox="0 0 469 80" fill="none" xmlns="http://www.w3.org/2000/svg">
<mask id="path-1-outside-1" maskUnits="userSpaceOnUse" x="0.544006" y="0.207993" width="468" height="80" fill="black">
<rect fill="white" x="0.544006" y="0.207993" width="468" height="80"/>
<path d="M29.968 58L18.016 37.48H10.096V58H3.54401V7.81599H19.744C23.536 7.81599 26.728 8.46399 29.32 9.75999C31.96 11.056 33.928 12.808 35.224 15.016C36.52 17.224 37.168 19.744 37.168 22.576C37.168 26.032 36.16 29.08 34.144 31.72C32.176 34.36 29.2 36.112 25.216 36.976L37.816 58H29.968ZM10.096 32.224H19.744C23.296 32.224 25.96 31.36 27.736 29.632C29.512 27.856 30.4 25.504 30.4 22.576C30.4 19.6 29.512 17.296 27.736 15.664C26.008 14.032 23.344 13.216 19.744 13.216H10.096V32.224Z"/>
<path d="M44.9007 38.128C44.9007 34.096 45.7167 30.568 47.3487 27.544C48.9807 24.472 51.2127 22.096 54.0447 20.416C56.9247 18.736 60.1167 17.896 63.6207 17.896C67.0767 17.896 70.0767 18.64 72.6207 20.128C75.1647 21.616 77.0607 23.488 78.3087 25.744V18.544H84.9327V58H78.3087V50.656C77.0127 52.96 75.0687 54.88 72.4767 56.416C69.9327 57.904 66.9567 58.648 63.5487 58.648C60.0447 58.648 56.8767 57.784 54.0447 56.056C51.2127 54.328 48.9807 51.904 47.3487 48.784C45.7167 45.664 44.9007 42.112 44.9007 38.128ZM78.3087 38.2C78.3087 35.224 77.7087 32.632 76.5087 30.424C75.3087 28.216 73.6767 26.536 71.6127 25.384C69.5967 24.184 67.3647 23.584 64.9167 23.584C62.4687 23.584 60.2367 24.16 58.2207 25.312C56.2047 26.464 54.5967 28.144 53.3967 30.352C52.1967 32.56 51.5967 35.152 51.5967 38.128C51.5967 41.152 52.1967 43.792 53.3967 46.048C54.5967 48.256 56.2047 49.96 58.2207 51.16C60.2367 52.312 62.4687 52.888 64.9167 52.888C67.3647 52.888 69.5967 52.312 71.6127 51.16C73.6767 49.96 75.3087 48.256 76.5087 46.048C77.7087 43.792 78.3087 41.176 78.3087 38.2Z"/>
<path d="M115.589 17.824C118.565 17.824 121.253 18.472 123.653 19.768C126.053 21.016 127.925 22.912 129.269 25.456C130.661 28 131.357 31.096 131.357 34.744V58H124.877V35.68C124.877 31.744 123.893 28.744 121.925 26.68C119.957 24.568 117.269 23.512 113.861 23.512C110.405 23.512 107.645 24.592 105.581 26.752C103.565 28.912 102.557 32.056 102.557 36.184V58H96.0049V4.72H102.557V24.16C103.853 22.144 105.629 20.584 107.885 19.48C110.189 18.376 112.757 17.824 115.589 17.824Z"/>
<path d="M177.052 18.544V58H170.5V52.168C169.252 54.184 167.5 55.768 165.244 56.92C163.036 58.024 160.588 58.576 157.9 58.576C154.828 58.576 152.068 57.952 149.62 56.704C147.172 55.408 145.228 53.488 143.788 50.944C142.396 48.4 141.7 45.304 141.7 41.656V18.544H148.18V40.792C148.18 44.68 149.164 47.68 151.132 49.792C153.1 51.856 155.788 52.888 159.196 52.888C162.7 52.888 165.46 51.808 167.476 49.648C169.492 47.488 170.5 44.344 170.5 40.216V18.544H177.052Z"/>
<path d="M194.666 4.72V58H188.114V4.72H194.666Z"/>
<path d="M251.452 58L239.5 37.48H231.58V58H225.028V7.81599H241.228C245.02 7.81599 248.212 8.46399 250.804 9.75999C253.444 11.056 255.412 12.808 256.708 15.016C258.004 17.224 258.652 19.744 258.652 22.576C258.652 26.032 257.644 29.08 255.628 31.72C253.66 34.36 250.684 36.112 246.7 36.976L259.3 58H251.452ZM231.58 32.224H241.228C244.78 32.224 247.444 31.36 249.22 29.632C250.996 27.856 251.884 25.504 251.884 22.576C251.884 19.6 250.996 17.296 249.22 15.664C247.492 14.032 244.828 13.216 241.228 13.216H231.58V32.224Z"/>
<path d="M266.385 38.128C266.385 34.096 267.201 30.568 268.833 27.544C270.465 24.472 272.697 22.096 275.529 20.416C278.409 18.736 281.601 17.896 285.105 17.896C288.561 17.896 291.561 18.64 294.105 20.128C296.649 21.616 298.545 23.488 299.793 25.744V18.544H306.417V58H299.793V50.656C298.497 52.96 296.553 54.88 293.961 56.416C291.417 57.904 288.441 58.648 285.033 58.648C281.529 58.648 278.361 57.784 275.529 56.056C272.697 54.328 270.465 51.904 268.833 48.784C267.201 45.664 266.385 42.112 266.385 38.128ZM299.793 38.2C299.793 35.224 299.193 32.632 297.993 30.424C296.793 28.216 295.161 26.536 293.097 25.384C291.081 24.184 288.849 23.584 286.401 23.584C283.953 23.584 281.721 24.16 279.705 25.312C277.689 26.464 276.081 28.144 274.881 30.352C273.681 32.56 273.081 35.152 273.081 38.128C273.081 41.152 273.681 43.792 274.881 46.048C276.081 48.256 277.689 49.96 279.705 51.16C281.721 52.312 283.953 52.888 286.401 52.888C288.849 52.888 291.081 52.312 293.097 51.16C295.161 49.96 296.793 48.256 297.993 46.048C299.193 43.792 299.793 41.176 299.793 38.2Z"/>
<path d="M336.713 17.824C341.513 17.824 345.401 19.288 348.377 22.216C351.353 25.096 352.841 29.272 352.841 34.744V58H346.361V35.68C346.361 31.744 345.377 28.744 343.409 26.68C341.441 24.568 338.753 23.512 335.345 23.512C331.889 23.512 329.129 24.592 327.065 26.752C325.049 28.912 324.041 32.056 324.041 36.184V58H317.489V18.544H324.041V24.16C325.337 22.144 327.089 20.584 329.297 19.48C331.553 18.376 334.025 17.824 336.713 17.824Z"/>
<path d="M367.072 12.136C365.824 12.136 364.768 11.704 363.904 10.84C363.088 9.97599 362.68 8.91999 362.68 7.67199C362.68 6.42399 363.088 5.36799 363.904 4.50399C364.768 3.63999 365.824 3.20799 367.072 3.20799C368.32 3.20799 369.352 3.63999 370.168 4.50399C371.032 5.36799 371.464 6.42399 371.464 7.67199C371.464 8.91999 371.032 9.97599 370.168 10.84C369.352 11.704 368.32 12.136 367.072 12.136ZM370.312 66.568C370.312 70.072 369.424 72.64 367.648 74.272C365.872 75.904 363.28 76.72 359.872 76.72H356.056V71.176H358.792C360.616 71.176 361.888 70.816 362.608 70.096C363.376 69.376 363.76 68.152 363.76 66.424V18.544H370.312V66.568Z"/>
<path d="M378.955 38.128C378.955 34.096 379.771 30.568 381.403 27.544C383.035 24.472 385.267 22.096 388.099 20.416C390.979 18.736 394.171 17.896 397.675 17.896C401.131 17.896 404.131 18.64 406.675 20.128C409.219 21.616 411.115 23.488 412.363 25.744V18.544H418.987V58H412.363V50.656C411.067 52.96 409.123 54.88 406.531 56.416C403.987 57.904 401.011 58.648 397.603 58.648C394.099 58.648 390.931 57.784 388.099 56.056C385.267 54.328 383.035 51.904 381.403 48.784C379.771 45.664 378.955 42.112 378.955 38.128ZM412.363 38.2C412.363 35.224 411.763 32.632 410.563 30.424C409.363 28.216 407.731 26.536 405.667 25.384C403.651 24.184 401.419 23.584 398.971 23.584C396.523 23.584 394.291 24.16 392.275 25.312C390.259 26.464 388.651 28.144 387.451 30.352C386.251 32.56 385.651 35.152 385.651 38.128C385.651 41.152 386.251 43.792 387.451 46.048C388.651 48.256 390.259 49.96 392.275 51.16C394.291 52.312 396.523 52.888 398.971 52.888C401.419 52.888 403.651 52.312 405.667 51.16C407.731 49.96 409.363 48.256 410.563 46.048C411.763 43.792 412.363 41.176 412.363 38.2Z"/>
<path d="M449.284 17.824C454.084 17.824 457.972 19.288 460.948 22.216C463.924 25.096 465.412 29.272 465.412 34.744V58H458.932V35.68C458.932 31.744 457.948 28.744 455.98 26.68C454.012 24.568 451.324 23.512 447.916 23.512C444.46 23.512 441.7 24.592 439.636 26.752C437.62 28.912 436.612 32.056 436.612 36.184V58H430.06V18.544H436.612V24.16C437.908 22.144 439.66 20.584 441.868 19.48C444.124 18.376 446.596 17.824 449.284 17.824Z"/>
</mask>
<path d="M29.968 58L18.016 37.48H10.096V58H3.54401V7.81599H19.744C23.536 7.81599 26.728 8.46399 29.32 9.75999C31.96 11.056 33.928 12.808 35.224 15.016C36.52 17.224 37.168 19.744 37.168 22.576C37.168 26.032 36.16 29.08 34.144 31.72C32.176 34.36 29.2 36.112 25.216 36.976L37.816 58H29.968ZM10.096 32.224H19.744C23.296 32.224 25.96 31.36 27.736 29.632C29.512 27.856 30.4 25.504 30.4 22.576C30.4 19.6 29.512 17.296 27.736 15.664C26.008 14.032 23.344 13.216 19.744 13.216H10.096V32.224Z" stroke="white" stroke-width="6" mask="url(#path-1-outside-1)"/>
<path d="M44.9007 38.128C44.9007 34.096 45.7167 30.568 47.3487 27.544C48.9807 24.472 51.2127 22.096 54.0447 20.416C56.9247 18.736 60.1167 17.896 63.6207 17.896C67.0767 17.896 70.0767 18.64 72.6207 20.128C75.1647 21.616 77.0607 23.488 78.3087 25.744V18.544H84.9327V58H78.3087V50.656C77.0127 52.96 75.0687 54.88 72.4767 56.416C69.9327 57.904 66.9567 58.648 63.5487 58.648C60.0447 58.648 56.8767 57.784 54.0447 56.056C51.2127 54.328 48.9807 51.904 47.3487 48.784C45.7167 45.664 44.9007 42.112 44.9007 38.128ZM78.3087 38.2C78.3087 35.224 77.7087 32.632 76.5087 30.424C75.3087 28.216 73.6767 26.536 71.6127 25.384C69.5967 24.184 67.3647 23.584 64.9167 23.584C62.4687 23.584 60.2367 24.16 58.2207 25.312C56.2047 26.464 54.5967 28.144 53.3967 30.352C52.1967 32.56 51.5967 35.152 51.5967 38.128C51.5967 41.152 52.1967 43.792 53.3967 46.048C54.5967 48.256 56.2047 49.96 58.2207 51.16C60.2367 52.312 62.4687 52.888 64.9167 52.888C67.3647 52.888 69.5967 52.312 71.6127 51.16C73.6767 49.96 75.3087 48.256 76.5087 46.048C77.7087 43.792 78.3087 41.176 78.3087 38.2Z" stroke="white" stroke-width="6" mask="url(#path-1-outside-1)"/>
<path d="M115.589 17.824C118.565 17.824 121.253 18.472 123.653 19.768C126.053 21.016 127.925 22.912 129.269 25.456C130.661 28 131.357 31.096 131.357 34.744V58H124.877V35.68C124.877 31.744 123.893 28.744 121.925 26.68C119.957 24.568 117.269 23.512 113.861 23.512C110.405 23.512 107.645 24.592 105.581 26.752C103.565 28.912 102.557 32.056 102.557 36.184V58H96.0049V4.72H102.557V24.16C103.853 22.144 105.629 20.584 107.885 19.48C110.189 18.376 112.757 17.824 115.589 17.824Z" stroke="white" stroke-width="6" mask="url(#path-1-outside-1)"/>
<path d="M177.052 18.544V58H170.5V52.168C169.252 54.184 167.5 55.768 165.244 56.92C163.036 58.024 160.588 58.576 157.9 58.576C154.828 58.576 152.068 57.952 149.62 56.704C147.172 55.408 145.228 53.488 143.788 50.944C142.396 48.4 141.7 45.304 141.7 41.656V18.544H148.18V40.792C148.18 44.68 149.164 47.68 151.132 49.792C153.1 51.856 155.788 52.888 159.196 52.888C162.7 52.888 165.46 51.808 167.476 49.648C169.492 47.488 170.5 44.344 170.5 40.216V18.544H177.052Z" stroke="white" stroke-width="6" mask="url(#path-1-outside-1)"/>
<path d="M194.666 4.72V58H188.114V4.72H194.666Z" stroke="white" stroke-width="6" mask="url(#path-1-outside-1)"/>
<path d="M251.452 58L239.5 37.48H231.58V58H225.028V7.81599H241.228C245.02 7.81599 248.212 8.46399 250.804 9.75999C253.444 11.056 255.412 12.808 256.708 15.016C258.004 17.224 258.652 19.744 258.652 22.576C258.652 26.032 257.644 29.08 255.628 31.72C253.66 34.36 250.684 36.112 246.7 36.976L259.3 58H251.452ZM231.58 32.224H241.228C244.78 32.224 247.444 31.36 249.22 29.632C250.996 27.856 251.884 25.504 251.884 22.576C251.884 19.6 250.996 17.296 249.22 15.664C247.492 14.032 244.828 13.216 241.228 13.216H231.58V32.224Z" stroke="white" stroke-width="6" mask="url(#path-1-outside-1)"/>
<path d="M266.385 38.128C266.385 34.096 267.201 30.568 268.833 27.544C270.465 24.472 272.697 22.096 275.529 20.416C278.409 18.736 281.601 17.896 285.105 17.896C288.561 17.896 291.561 18.64 294.105 20.128C296.649 21.616 298.545 23.488 299.793 25.744V18.544H306.417V58H299.793V50.656C298.497 52.96 296.553 54.88 293.961 56.416C291.417 57.904 288.441 58.648 285.033 58.648C281.529 58.648 278.361 57.784 275.529 56.056C272.697 54.328 270.465 51.904 268.833 48.784C267.201 45.664 266.385 42.112 266.385 38.128ZM299.793 38.2C299.793 35.224 299.193 32.632 297.993 30.424C296.793 28.216 295.161 26.536 293.097 25.384C291.081 24.184 288.849 23.584 286.401 23.584C283.953 23.584 281.721 24.16 279.705 25.312C277.689 26.464 276.081 28.144 274.881 30.352C273.681 32.56 273.081 35.152 273.081 38.128C273.081 41.152 273.681 43.792 274.881 46.048C276.081 48.256 277.689 49.96 279.705 51.16C281.721 52.312 283.953 52.888 286.401 52.888C288.849 52.888 291.081 52.312 293.097 51.16C295.161 49.96 296.793 48.256 297.993 46.048C299.193 43.792 299.793 41.176 299.793 38.2Z" stroke="white" stroke-width="6" mask="url(#path-1-outside-1)"/>
<path d="M336.713 17.824C341.513 17.824 345.401 19.288 348.377 22.216C351.353 25.096 352.841 29.272 352.841 34.744V58H346.361V35.68C346.361 31.744 345.377 28.744 343.409 26.68C341.441 24.568 338.753 23.512 335.345 23.512C331.889 23.512 329.129 24.592 327.065 26.752C325.049 28.912 324.041 32.056 324.041 36.184V58H317.489V18.544H324.041V24.16C325.337 22.144 327.089 20.584 329.297 19.48C331.553 18.376 334.025 17.824 336.713 17.824Z" stroke="white" stroke-width="6" mask="url(#path-1-outside-1)"/>
<path d="M367.072 12.136C365.824 12.136 364.768 11.704 363.904 10.84C363.088 9.97599 362.68 8.91999 362.68 7.67199C362.68 6.42399 363.088 5.36799 363.904 4.50399C364.768 3.63999 365.824 3.20799 367.072 3.20799C368.32 3.20799 369.352 3.63999 370.168 4.50399C371.032 5.36799 371.464 6.42399 371.464 7.67199C371.464 8.91999 371.032 9.97599 370.168 10.84C369.352 11.704 368.32 12.136 367.072 12.136ZM370.312 66.568C370.312 70.072 369.424 72.64 367.648 74.272C365.872 75.904 363.28 76.72 359.872 76.72H356.056V71.176H358.792C360.616 71.176 361.888 70.816 362.608 70.096C363.376 69.376 363.76 68.152 363.76 66.424V18.544H370.312V66.568Z" stroke="white" stroke-width="6" mask="url(#path-1-outside-1)"/>
<path d="M378.955 38.128C378.955 34.096 379.771 30.568 381.403 27.544C383.035 24.472 385.267 22.096 388.099 20.416C390.979 18.736 394.171 17.896 397.675 17.896C401.131 17.896 404.131 18.64 406.675 20.128C409.219 21.616 411.115 23.488 412.363 25.744V18.544H418.987V58H412.363V50.656C411.067 52.96 409.123 54.88 406.531 56.416C403.987 57.904 401.011 58.648 397.603 58.648C394.099 58.648 390.931 57.784 388.099 56.056C385.267 54.328 383.035 51.904 381.403 48.784C379.771 45.664 378.955 42.112 378.955 38.128ZM412.363 38.2C412.363 35.224 411.763 32.632 410.563 30.424C409.363 28.216 407.731 26.536 405.667 25.384C403.651 24.184 401.419 23.584 398.971 23.584C396.523 23.584 394.291 24.16 392.275 25.312C390.259 26.464 388.651 28.144 387.451 30.352C386.251 32.56 385.651 35.152 385.651 38.128C385.651 41.152 386.251 43.792 387.451 46.048C388.651 48.256 390.259 49.96 392.275 51.16C394.291 52.312 396.523 52.888 398.971 52.888C401.419 52.888 403.651 52.312 405.667 51.16C407.731 49.96 409.363 48.256 410.563 46.048C411.763 43.792 412.363 41.176 412.363 38.2Z" stroke="white" stroke-width="6" mask="url(#path-1-outside-1)"/>
<path d="M449.284 17.824C454.084 17.824 457.972 19.288 460.948 22.216C463.924 25.096 465.412 29.272 465.412 34.744V58H458.932V35.68C458.932 31.744 457.948 28.744 455.98 26.68C454.012 24.568 451.324 23.512 447.916 23.512C444.46 23.512 441.7 24.592 439.636 26.752C437.62 28.912 436.612 32.056 436.612 36.184V58H430.06V18.544H436.612V24.16C437.908 22.144 439.66 20.584 441.868 19.48C444.124 18.376 446.596 17.824 449.284 17.824Z" stroke="white" stroke-width="6" mask="url(#path-1-outside-1)"/>
</svg>
