<svg id="contactweb" enable-background="new 0 0 512 512" height="512" viewBox="0 0 512 512" width="512" xmlns="http://www.w3.org/2000/svg"><g><path d="m424.25 482v30h-336.5v-30h120.28v-67.4h95.94v67.4z"/><circle cx="256" cy="147.28" r="21.76"/><path d="m0 0v294.6h512v-294.6zm362.12 175.82-3.11 10.86h-69.49c-9.03 7.71-20.74 12.36-33.52 12.36-28.54 0-51.76-23.22-51.76-51.76s23.22-51.76 51.76-51.76 51.76 23.22 51.76 51.76c0 3.21-.29 6.35-.86 9.4h29.59c.35-3.06.51-6.27.51-9.9 0-44.11-37.88-80-82-80-44.11 0-80.87 38.11-80.87 82.22s37.89 80 82 80c15.35 0 30.26-4.35 43.11-12.59l16.06 23.03c-17.69 11.34-38.2 17.34-59.3 17.34-60.65 0-110-49.35-110-110s49.35-110 110-110c60.66 0 110 49.35 110 110 0 10.72-1.19 19.67-3.88 29.04z"/><g><path d="m0 324.6h512v60h-512z"/></g></g></svg>