<svg id="name_small" width="202" height="45" viewBox="0 0 202 45" fill="none" xmlns="http://www.w3.org/2000/svg">
<path d="M7.46131 19.2727C7.46131 19.5576 7.66166 19.9423 8.06236 20.4267C8.47737 20.8969 9.09273 21.481 9.90845 22.1792C10.4379 22.6209 10.9818 23.0554 11.5399 23.4828C12.1123 23.896 12.6776 24.3163 13.2357 24.7438C13.479 24.9432 13.7938 25.2068 14.1802 25.5345C14.5666 25.848 15.0174 26.2184 15.5326 26.6458C15.9047 26.9308 16.291 27.2157 16.6917 27.5007C17.1068 27.7856 17.5504 28.0706 18.0226 28.3556C18.3375 28.5978 18.6881 28.8613 19.0745 29.1463C19.4609 29.4313 19.9045 29.7376 20.4054 30.0653C20.6916 30.2363 20.9134 30.5497 21.0708 31.0056C21.2283 31.4473 21.3213 32.0243 21.3499 32.7367L21.1567 33.2924L20.942 33.3992C20.7989 33.3992 20.6057 33.3351 20.3625 33.2069C20.1335 33.0929 19.8401 32.9219 19.4823 32.694C19.4108 32.6512 19.0816 32.4945 18.4949 32.2238C17.9225 31.9531 17.0924 31.5684 16.0048 31.0697C15.4038 30.8133 14.8528 30.5283 14.3519 30.2149C13.8511 29.8872 13.3931 29.5452 12.9781 29.189C12.7348 28.9753 12.42 28.7402 12.0336 28.4838C11.6615 28.2273 11.2179 27.9495 10.7027 27.6503C10.1732 27.3511 9.71525 27.0661 9.32886 26.7954C8.94247 26.5247 8.63479 26.2968 8.40582 26.1115C7.63304 25.4846 7.00336 25.0074 6.5168 24.6797C6.03023 24.352 5.69393 24.1881 5.50789 24.1881C5.36478 24.3876 5.28607 24.5942 5.27176 24.8079C5.10003 25.4775 4.91399 26.3253 4.71364 27.3511C4.5276 28.3627 4.3201 29.5452 4.09112 30.8988C4.09112 31.141 4.04819 31.3191 3.96233 31.4331C3.87646 31.5613 3.74767 31.6254 3.57594 31.6254C3.01782 31.6254 2.59565 31.49 2.30943 31.2193C2.02322 30.9486 1.88011 30.5426 1.88011 30.0012C1.88011 29.2745 1.92304 28.5123 2.00891 27.7144C2.10908 26.9165 2.2665 26.0759 2.48116 25.1926C2.55272 24.8079 2.6028 24.4659 2.63143 24.1667C2.67436 23.8533 2.69582 23.5683 2.69582 23.3119C2.69582 22.6565 2.40961 22.0937 1.83718 21.6235C1.27906 21.1534 1 20.8185 1 20.6191C1 20.3056 1.04293 20.0349 1.1288 19.8069C1.22897 19.5647 1.37208 19.3724 1.55812 19.2299C2.03037 18.9307 2.46685 18.6458 2.86755 18.3751C2.96773 18.3181 3.03213 18.2255 3.06075 18.0972C3.10368 17.9547 3.12515 17.7624 3.12515 17.5202C3.12515 17.3777 3.12515 17.2281 3.12515 17.0714C3.12515 16.9004 3.12515 16.7437 3.12515 16.6012C3.16808 15.3332 3.20386 14.0153 3.23248 12.6475C3.23248 12.5477 3.23248 12.391 3.23248 12.1773C3.23248 11.9636 3.21817 11.6858 3.18955 11.3438C3.16092 11.0874 3.15377 10.8523 3.16808 10.6386C3.18239 10.4106 3.18955 10.204 3.18955 10.0188C3.10368 9.73383 3.02497 9.49162 2.95342 9.29215C2.89618 9.07844 2.86755 8.87897 2.86755 8.69375C2.86755 8.52278 2.88186 8.2592 2.91049 7.903C2.93911 7.53256 2.95342 7.26898 2.95342 7.11226C2.95342 6.91279 2.93195 6.63496 2.88902 6.27877C2.8604 5.92258 2.84609 5.65187 2.84609 5.46665C2.84609 4.95373 2.96057 4.46219 3.18955 3.99201C3.43283 3.52184 3.79775 3.05879 4.28432 2.60286C4.75657 2.20393 5.23598 1.90473 5.72255 1.70526C6.22343 1.49155 6.73146 1.38469 7.24665 1.38469C7.48993 1.38469 7.8477 1.40606 8.31995 1.4488C8.80652 1.4773 9.18575 1.49155 9.45766 1.49155C9.6437 1.49155 10.1517 1.64827 10.9818 1.96172C11.3109 1.99021 11.6043 2.03296 11.8619 2.08995C12.1195 2.13269 12.327 2.18256 12.4844 2.23955C12.8422 2.41052 13.1212 2.54587 13.3216 2.64561C13.5219 2.73109 13.665 2.78096 13.7509 2.79521C13.9942 2.88069 14.2017 2.95193 14.3734 3.00892C14.5594 3.06591 14.7097 3.13715 14.8242 3.22264C15.0102 3.30813 15.2249 3.40786 15.4682 3.52184C15.7258 3.63582 16.012 3.76405 16.3268 3.90653C16.842 4.16299 17.3214 4.46219 17.7651 4.80413C18.223 5.14608 18.6523 5.51652 19.053 5.91545C19.511 6.42837 19.8544 6.93416 20.0834 7.43283C20.3124 7.91725 20.4269 8.40167 20.4269 8.88609C20.4269 9.02857 20.4125 9.23516 20.3839 9.50587C20.3696 9.76233 20.3338 10.0544 20.2766 10.3821C20.2337 10.7953 20.019 11.2441 19.6326 11.7285C19.2462 12.1987 18.6881 12.7187 17.9582 13.2886C17.3143 13.7873 16.7132 14.2076 16.1551 14.5495C15.597 14.8772 15.0818 15.1123 14.6095 15.2548C14.4235 15.383 14.2804 15.5041 14.1802 15.6181C14.0371 15.7606 13.7366 15.9601 13.2786 16.2165C12.8207 16.473 12.1982 16.7936 11.4111 17.1782C9.98 17.8764 8.96394 18.3394 8.36289 18.5674C7.76183 18.7811 7.46131 19.0162 7.46131 19.2727ZM5.20736 8.97158C5.47927 8.77211 5.73686 8.57977 5.98014 8.39455C6.22343 8.19508 6.53826 8.09535 6.92465 8.09535C7.09638 8.09535 7.30389 8.28769 7.54717 8.67238C7.80477 9.04282 7.93356 9.32065 7.93356 9.50587C7.93356 9.6056 7.89779 9.83357 7.82623 10.1898C7.75468 10.5459 7.64019 11.0304 7.48277 11.643C7.15363 13.025 6.96759 13.8942 6.92465 14.2503C6.88172 14.5923 6.7887 15.1337 6.64559 15.8746C6.58835 16.0598 6.53111 16.302 6.47387 16.6012C6.47387 16.7294 6.49533 16.8221 6.53826 16.879C6.59551 16.936 6.66706 16.9645 6.75292 16.9645C9.60077 15.5398 11.0748 14.7989 11.1749 14.7419C11.2894 14.7134 11.4111 14.6778 11.5399 14.635C11.6687 14.578 11.7903 14.5211 11.9048 14.4641L12.2268 14.058C13.0568 13.5308 13.9155 12.9681 14.8027 12.3697C15.3608 11.9422 15.7759 11.5219 16.0478 11.1087C16.3197 10.6956 16.4556 10.2824 16.4556 9.86918C16.4556 9.34202 16.1479 8.82198 15.5326 8.30906C14.9172 7.79615 13.9942 7.3046 12.7634 6.83443C11.7188 6.42124 10.7671 6.12204 9.90845 5.93682C9.0498 5.73736 8.26987 5.63762 7.56864 5.63762C6.65275 5.63762 5.95868 5.80147 5.48642 6.12917C5.02848 6.44262 4.79951 6.91279 4.79951 7.53969C4.79951 8.02411 4.83528 8.39455 4.90684 8.65101C4.97839 8.89322 5.07857 9.00008 5.20736 8.97158Z" stroke="white"/>
<path d="M20.2337 23.953L22.1871 22.6707C22.2586 22.5995 22.3445 22.5069 22.4447 22.3929C22.5448 22.2647 22.6593 22.0866 22.7881 21.8586C22.8883 21.6734 23.0171 21.5167 23.1745 21.3884C23.3462 21.2602 23.5394 21.1462 23.7541 21.0465C23.8686 20.904 24.0332 20.7259 24.2478 20.5122C24.4625 20.2985 24.7344 20.0492 25.0635 19.7642C25.221 19.6787 25.4213 19.5576 25.6646 19.4009C25.9079 19.2299 26.1726 19.0091 26.4588 18.7384C27.7611 17.5131 28.8988 16.5941 29.872 15.9814C30.8594 15.3688 31.6894 15.0625 32.362 15.0625C32.7341 15.0625 33.006 15.1408 33.1777 15.2976C33.3638 15.4543 33.4568 15.6751 33.4568 15.9601C33.4568 16.2593 33.3996 16.5229 33.2851 16.7508C33.1849 16.9788 33.0203 17.1711 32.7914 17.3278C32.4336 17.5843 32.0472 17.8693 31.6322 18.1827C31.4032 18.4819 31.1241 18.8025 30.795 19.1444C30.4659 19.4721 30.0795 19.7998 29.6358 20.1275C29.4927 20.3127 29.3711 20.4766 29.2709 20.6191C29.1993 20.6903 29.0634 20.8185 28.863 21.0038C28.6627 21.189 28.3979 21.4027 28.0688 21.6449C27.9257 21.9583 27.6109 22.3644 27.1243 22.8631C26.652 23.3617 26.0152 23.9601 25.2138 24.6583C25.1136 24.758 24.9347 24.986 24.6772 25.3422C24.4196 25.6984 24.0833 26.1685 23.6682 26.7527L23.8185 26.945C24.1333 26.8453 24.4625 26.6743 24.8059 26.4321C25.1494 26.1899 25.5286 25.8693 25.9437 25.4704C26.4302 25.0287 26.8238 24.6725 27.1243 24.4018C27.4391 24.1169 27.6609 23.9317 27.7897 23.8462C27.8899 23.7892 27.9901 23.7322 28.0903 23.6752C28.1904 23.6182 28.3049 23.547 28.4337 23.4615C29.092 22.6779 29.7074 22.1008 30.2798 21.7304C30.8522 21.3457 31.3817 21.1534 31.8683 21.1534C32.1688 21.1534 32.3978 21.2745 32.5552 21.5167C32.7126 21.7446 32.8057 22.0937 32.8343 22.5639C32.8057 23.2763 32.7914 23.9601 32.7914 24.6155C32.777 25.0715 32.8987 25.4846 33.1563 25.8551C33.4282 26.2113 33.7788 26.3894 34.2081 26.3894C34.3369 26.3894 34.4586 26.3538 34.573 26.2825C34.7018 26.2113 34.8306 26.1187 34.9594 26.0047C35.0596 25.8765 35.1526 25.7554 35.2385 25.6414C35.3387 25.5274 35.4388 25.4134 35.539 25.2994C35.5963 25.2709 35.675 25.2211 35.7751 25.1498C35.8896 25.0786 35.997 24.9931 36.0971 24.8934C36.2975 25.3208 36.4621 25.6984 36.5909 26.0261C36.734 26.3395 36.8413 26.6173 36.9128 26.8595C36.5837 27.1588 36.2546 27.4722 35.9254 27.7999C35.6106 28.1133 35.2743 28.4125 34.9165 28.6975C34.4872 29.0252 34.0722 29.2745 33.6715 29.4455C33.2708 29.6022 32.8701 29.6806 32.4694 29.6806C31.5392 29.6806 30.8236 29.417 30.3227 28.8898C29.8219 28.3627 29.5285 27.5648 29.4426 26.4962C29.4426 26.368 29.4212 26.2398 29.3782 26.1115C29.3496 25.9691 29.2781 25.8266 29.1636 25.6841C29.092 25.7554 29.0133 25.8337 28.9274 25.9192C28.8416 25.9904 28.7414 26.0902 28.6269 26.2184C28.4409 26.3609 28.2048 26.539 27.9185 26.7527C27.6466 26.9664 27.3246 27.2229 26.9526 27.5221C26.4517 28.035 26.0295 28.4553 25.6861 28.783C25.3426 29.1107 25.0993 29.3458 24.9562 29.4882C24.67 29.7305 24.3337 29.9727 23.9473 30.2149C23.5752 30.4571 23.1531 30.7064 22.6808 30.9629C22.3803 31.1196 22.1227 31.2407 21.908 31.3262C21.6934 31.4259 21.5359 31.4758 21.4358 31.4758C20.7488 31.4758 20.2408 31.312 19.9117 30.9843C19.5825 30.6423 19.4179 30.1223 19.4179 29.4241C19.4179 29.0394 19.5038 28.6761 19.6755 28.3342C19.833 27.978 20.0762 27.636 20.4054 27.3084C20.434 27.1231 20.4483 26.9735 20.4483 26.8595C20.4483 26.7883 20.4269 26.7171 20.3839 26.6458C20.3553 26.5603 20.3124 26.4677 20.2551 26.368C20.1693 26.1685 20.0762 25.9477 19.9761 25.7055C19.8616 25.449 19.7399 25.1783 19.6111 24.8934C19.6684 24.8364 19.7542 24.7295 19.8687 24.5728C19.9689 24.4018 20.0906 24.1952 20.2337 23.953Z" stroke="white"/>
<path d="M36.0757 24.8934C36.3905 24.6227 36.6338 24.4089 36.8055 24.2522C36.9772 24.0955 37.1132 23.9601 37.2134 23.8462C37.4423 23.6324 37.6284 23.4259 37.7715 23.2264C37.9146 23.0269 37.9933 22.8488 38.0076 22.6921C38.1364 22.2077 38.2867 21.6022 38.4584 20.8755C38.6301 20.1489 38.852 19.3083 39.1239 18.3537C39.2527 18.0687 39.3886 17.7125 39.5317 17.2851C39.6891 16.8434 39.8537 16.3519 40.0254 15.8105C40.1972 15.0981 40.4118 14.4498 40.6694 13.8657C40.927 13.2815 41.2132 12.7543 41.5281 12.2842C41.6282 12.1559 41.7284 11.9992 41.8286 11.814C41.9288 11.6145 42.0289 11.3866 42.1291 11.1301C42.2293 10.9021 42.3652 10.6386 42.537 10.3394C42.723 10.0259 42.9305 9.66259 43.1595 9.24941C43.7462 8.39455 44.2614 7.66079 44.7051 7.04814C45.1487 6.43549 45.5136 5.94395 45.7998 5.57351C46.315 4.96086 46.8302 4.39095 47.3454 3.86378C47.8749 3.32237 48.4044 2.8237 48.9339 2.36778C49.4205 1.95459 49.8426 1.65539 50.2004 1.47017C50.5582 1.27071 50.8444 1.17097 51.059 1.17097C51.2594 1.34194 51.4025 1.49867 51.4884 1.64115C51.5885 1.64115 51.6887 1.6269 51.7889 1.5984C52.161 1.5984 52.4329 1.748 52.6046 2.0472C52.7763 2.34641 52.8622 2.78808 52.8622 3.37224C52.8622 3.50047 52.8407 3.67144 52.7978 3.88516C52.7549 4.08462 52.6976 4.33396 52.6261 4.63316C52.5259 4.73289 52.4543 4.86112 52.4114 5.01785C52.3685 5.17457 52.3327 5.3313 52.3041 5.48802C52.2898 5.68749 52.2683 5.85846 52.2397 6.00094C52.211 6.14341 52.1753 6.27164 52.1323 6.38563C51.9463 6.72757 51.7459 7.14788 51.5313 7.64655C51.3166 8.13097 51.0877 8.70087 50.8444 9.35627C50.7013 9.59848 50.5224 9.91905 50.3077 10.318C50.0931 10.7169 49.8355 11.1586 49.5349 11.643C49.3918 11.9137 49.2058 12.2557 48.9768 12.6689C48.7622 13.0678 48.4831 13.5308 48.1396 14.058C48.0538 14.2575 47.9035 14.4783 47.6888 14.7205C47.4885 14.9485 47.2452 15.2192 46.959 15.5326C46.8731 15.7606 46.6299 16.1524 46.2292 16.7081C45.8428 17.2637 45.299 17.9832 44.5977 18.8666C44.2543 19.3083 43.8106 19.8568 43.2668 20.5122C42.723 21.1676 42.0933 21.9441 41.3778 22.8417C41.1059 23.9103 40.8984 24.8649 40.7553 25.7055C40.6265 26.5319 40.5621 27.2514 40.5621 27.864C40.5621 28.1062 40.5764 28.2914 40.605 28.4197C40.648 28.5337 40.7195 28.5906 40.8197 28.5906C40.8912 28.4909 40.9914 28.3769 41.1202 28.2487C41.2633 28.1205 41.4064 27.9709 41.5495 27.7999C41.8214 27.5577 42.1363 27.1089 42.494 26.4535C42.8661 25.7981 43.2883 24.9504 43.7605 23.9103C44.1756 22.9699 44.5476 22.2504 44.8768 21.7518C45.2059 21.2388 45.4778 20.9325 45.6925 20.8328L46.4438 20.5122C46.5869 20.4552 46.7157 20.4053 46.8302 20.3626C46.9447 20.3199 47.0377 20.2985 47.1093 20.2985C47.2953 20.2985 47.467 20.4125 47.6245 20.6404C47.7819 20.8684 47.9107 21.1818 48.0108 21.5808C48.1969 22.3074 48.3471 22.8702 48.4616 23.2691C48.5761 23.6538 48.6405 23.8818 48.6548 23.953C48.8409 24.3805 49.0627 24.6939 49.3203 24.8934C49.5922 25.0928 49.9142 25.1926 50.2863 25.1926C50.7299 25.1213 51.2522 25.0216 51.8533 24.8934C51.9678 25.1783 52.0966 25.4846 52.2397 25.8123C52.3971 26.14 52.5545 26.4891 52.7119 26.8595C52.3685 27.0875 52.0179 27.3084 51.6601 27.5221C51.3166 27.7358 50.9732 27.9495 50.6297 28.1632C50.4007 28.2914 50.0716 28.3912 49.6423 28.4624C49.2129 28.5194 48.7121 28.5479 48.1396 28.5479C47.2667 28.5479 46.5869 28.1418 46.1004 27.3297C45.6281 26.5034 45.3419 26.0973 45.2417 26.1115H45.1129C44.8839 26.3965 44.6407 26.6886 44.3831 26.9878C44.1398 27.287 43.8965 27.6004 43.6532 27.9281C43.4958 28.2558 43.274 28.6334 42.9878 29.0608C42.7016 29.4882 42.3581 29.9584 41.9574 30.4713C41.4851 31.0412 41.0701 31.4687 40.7124 31.7536C40.3546 32.0386 40.0469 32.1811 39.7893 32.1811C39.2455 32.1811 38.8162 32.1169 38.5013 31.9887C38.2008 31.8747 38.0219 31.6966 37.9647 31.4544C37.793 30.6566 37.657 29.9655 37.5568 29.3814C37.471 28.783 37.428 28.2772 37.428 27.864C37.428 27.7358 37.4352 27.6218 37.4495 27.5221C37.4638 27.4223 37.4781 27.3297 37.4924 27.2442C37.5354 27.059 37.5855 26.8595 37.6427 26.6458C37.6427 26.5746 37.6212 26.5247 37.5783 26.4962C37.5497 26.4535 37.4924 26.4321 37.4066 26.4321C37.3636 26.4891 37.3064 26.5532 37.2348 26.6245C37.1633 26.6957 37.0631 26.7741 36.9343 26.8595C36.8771 26.6743 36.7769 26.4179 36.6338 26.0902C36.4907 25.7625 36.3046 25.3635 36.0757 24.8934ZM50.0287 5.14608C49.8712 5.14608 49.5564 5.43103 49.0841 6.00094C48.6119 6.5566 48.0108 7.38296 47.281 8.48003C46.866 9.09269 46.4581 9.70534 46.0574 10.318C45.6567 10.9164 45.2632 11.5077 44.8768 12.0918C44.7051 12.2628 44.5763 12.4338 44.4904 12.6047C44.4188 12.7757 44.3831 12.9538 44.3831 13.139C44.0968 13.9369 43.8178 14.6849 43.5459 15.383C43.2883 16.1382 43.0736 16.7223 42.9019 17.1355C42.7445 17.5487 42.6515 17.7909 42.6228 17.8621L42.7302 17.969C43.0164 17.7125 43.2597 17.4418 43.46 17.1569C43.7462 16.8292 44.0897 16.4089 44.4904 15.896C44.9054 15.3688 45.3705 14.7561 45.8857 14.058C46.4009 13.4026 46.9304 12.5762 47.4742 11.5789C48.018 10.5673 48.6047 9.40613 49.2344 8.09535C49.5922 7.38296 49.8569 6.81306 50.0287 6.38563C50.2147 5.95819 50.3077 5.65899 50.3077 5.48802C50.3077 5.38829 50.2863 5.30992 50.2433 5.25293C50.2147 5.1817 50.1431 5.14608 50.0287 5.14608Z" stroke="white"/>
<path d="M51.8318 24.8934C51.8891 24.8506 51.9391 24.8008 51.9821 24.7438C52.0107 24.6868 52.025 24.6155 52.025 24.5301C52.2683 24.3306 52.5402 24.0599 52.8407 23.7179C53.1556 23.3617 53.5062 22.9486 53.8926 22.4784C54.2074 22.051 54.5294 21.6235 54.8585 21.1961C55.202 20.7687 55.5669 20.3412 55.9533 19.9138C56.2681 19.4864 56.5758 19.0447 56.8764 18.5888C57.1912 18.1186 57.5203 17.6627 57.8638 17.221C58.4362 16.9503 58.8799 16.7579 59.1947 16.644C59.5095 16.53 59.7242 16.473 59.8387 16.473C60.0533 16.473 60.2179 16.5442 60.3324 16.6867C60.4469 16.8149 60.5041 17.0073 60.5041 17.2637C60.5041 17.3492 60.4827 17.4703 60.4397 17.627C60.3968 17.7838 60.3467 17.9547 60.2895 18.14C60.1893 18.4249 60.0748 18.717 59.946 19.0162C59.8315 19.5149 59.6956 20.0135 59.5382 20.5122C59.3807 21.0109 59.2305 21.5024 59.0874 21.9868C58.9443 22.5995 58.8298 23.1623 58.7439 23.6752C58.6724 24.1881 58.6366 24.6583 58.6366 25.0857C58.6366 25.8836 58.6724 26.4749 58.7439 26.8595C58.8298 27.2442 58.9443 27.4152 59.0874 27.3725C59.2305 27.287 59.4094 27.1872 59.624 27.0733C59.8387 26.945 60.0891 26.8026 60.3753 26.6458C60.6329 26.3751 60.9191 26.0403 61.234 25.6414C61.5631 25.2424 61.9567 24.7723 62.4146 24.2309C62.6722 23.8319 62.937 23.4401 63.2089 23.0554C63.309 22.9414 63.4235 22.8061 63.5523 22.6494C63.6954 22.4926 63.8242 22.3359 63.9387 22.1792C64.2106 21.4953 64.5111 20.9895 64.8403 20.6618C65.1838 20.3199 65.563 20.1489 65.978 20.1489C66.3501 20.1489 66.6434 20.1988 66.8581 20.2985C67.0871 20.384 67.2445 20.5193 67.3304 20.7045C67.3733 20.8043 67.4091 20.9753 67.4377 21.2175C67.4663 21.4597 67.4806 21.7802 67.4806 22.1792C67.4806 22.3359 67.5093 22.5639 67.5665 22.8631C67.638 23.1623 67.6738 23.3831 67.6738 23.5256C67.6738 24.0528 67.7668 24.4517 67.9529 24.7224C68.1389 24.9789 68.4251 25.1071 68.8115 25.1071C68.926 25.1071 69.062 25.0857 69.2194 25.043C69.3768 25.0002 69.5342 24.9504 69.6916 24.8934L70.5503 26.8595C69.6916 27.3725 68.9833 27.7643 68.4251 28.035C67.8813 28.2914 67.4735 28.4197 67.2016 28.4197C66.486 28.4197 65.8993 28.2345 65.4413 27.864C64.9834 27.4936 64.6471 26.945 64.4324 26.2184C64.4038 26.0474 64.3394 25.8765 64.2392 25.7055C64.1534 25.5345 64.0389 25.3635 63.8958 25.1926C63.767 25.335 63.6167 25.506 63.445 25.7055C63.2876 25.905 63.1158 26.1044 62.9298 26.3039C62.5434 26.7741 62.157 27.2371 61.7706 27.693C61.3842 28.1347 60.9907 28.5764 60.59 29.0181C60.0891 29.6022 59.5811 30.0297 59.0659 30.3004C58.565 30.5568 58.0928 30.6851 57.6491 30.6851C56.9908 30.6851 56.4613 30.4927 56.0606 30.108C55.6599 29.7091 55.4023 29.1249 55.2879 28.3556C55.1591 27.6147 55.0732 27.0376 55.0303 26.6245C54.9873 26.2113 54.9802 25.9619 55.0088 25.8765C54.9802 25.4633 54.9372 25.1498 54.88 24.9361C54.8371 24.7224 54.7655 24.6155 54.6653 24.6155L54.5365 24.6797L53.313 25.9406C53.27 26.0403 53.1985 26.1685 53.0983 26.3253C52.9981 26.4677 52.8622 26.6458 52.6905 26.8595C52.6332 26.6458 52.533 26.3823 52.3899 26.0688C52.2468 25.7554 52.0608 25.3635 51.8318 24.8934Z" stroke="white"/>
<path d="M69.6916 24.8934C69.8204 24.7509 69.9492 24.5799 70.078 24.3805C70.2068 24.1667 70.3786 23.9388 70.5932 23.6966L72.01 22.457C72.0672 22.4143 72.0958 22.3573 72.0958 22.286C72.1102 22.2148 72.1173 22.1151 72.1173 21.9868C72.103 21.8016 72.0815 21.652 72.0529 21.538C72.0529 21.2103 72.1173 20.6618 72.2461 19.8924C72.3749 19.1231 72.4894 18.66 72.5896 18.5033L72.4608 18.0972C72.6468 17.1426 72.9044 16.1025 73.2336 14.977C73.577 13.8372 73.9634 12.6047 74.3927 11.2797C74.5358 11.0517 74.6861 10.7668 74.8435 10.4248C75.0009 10.0687 75.1798 9.66972 75.3802 9.22804C75.6235 8.48716 75.9454 7.71066 76.3461 6.89854C76.7468 6.08642 77.1976 5.25293 77.6985 4.39807C78.3711 3.27251 78.965 2.42477 79.4802 1.85486C80.0097 1.28495 80.482 1 80.897 1C81.727 1 82.2923 1.16385 82.5928 1.49155C82.9076 1.80499 83.065 2.4034 83.065 3.28675C83.065 3.51472 83.0221 3.87091 82.9362 4.35533C82.8647 4.8255 82.8289 5.1817 82.8289 5.42391C82.8289 5.66612 82.7502 6.00806 82.5928 6.44974C82.4354 6.89142 82.3567 7.29748 82.3567 7.66792C82.3424 7.7819 82.3066 7.89588 82.2493 8.00986L82.2708 8.30906C82.2136 8.50853 82.1277 8.75074 82.0132 9.03569C81.8987 9.32065 81.7485 9.66259 81.5624 10.0615C81.4622 10.4177 81.3334 10.8309 81.176 11.3011C81.0186 11.7713 80.8326 12.2842 80.6179 12.8398C80.532 12.9823 80.4176 13.1604 80.2744 13.3741C80.1457 13.5736 80.0025 13.8015 79.8451 14.058C79.8022 14.2432 79.7306 14.4569 79.6305 14.6991C79.5303 14.9414 79.3943 15.2263 79.2226 15.554C79.1367 15.725 79.0223 15.9102 78.8791 16.1097C78.736 16.3091 78.5643 16.5656 78.364 16.879C78.2781 17.0215 78.1851 17.1996 78.0849 17.4133C77.9847 17.627 77.8702 17.8693 77.7414 18.14C77.584 18.3822 77.3765 18.6814 77.1189 19.0376C76.8613 19.3938 76.568 19.8141 76.2388 20.2985C75.7952 21.0821 75.3372 21.8301 74.865 22.5425C74.865 23.9245 75.1369 24.9717 75.6807 25.6841C76.2388 26.3823 77.0688 26.7313 78.1708 26.7313C78.2423 26.7313 78.457 26.6815 78.8147 26.5817C79.1725 26.482 79.6662 26.3253 80.2959 26.1115C80.482 25.9976 80.7038 25.8408 80.9614 25.6414C81.219 25.4277 81.5123 25.1783 81.8415 24.8934L82.6787 26.8595C82.3066 27.1872 81.9345 27.5221 81.5624 27.864C81.1903 28.206 80.8111 28.5408 80.4247 28.8685C79.9811 29.2389 79.5303 29.5239 79.0723 29.7233C78.6144 29.9086 78.1636 30.0012 77.72 30.0012C77.491 30.0012 77.1404 29.9798 76.6681 29.937C76.1959 29.8801 75.8381 29.8516 75.5948 29.8516C74.7934 29.8516 74.128 29.531 73.5985 28.8898C73.0833 28.2487 72.7184 27.287 72.5037 26.0047C72.4751 25.8765 72.4322 25.7625 72.3749 25.6627C72.332 25.563 72.2461 25.449 72.1173 25.3208C71.9313 25.506 71.7095 25.7269 71.4519 25.9833C71.2086 26.2398 70.9081 26.5319 70.5503 26.8595L69.6916 24.8934ZM79.931 8.11672L79.7807 8.03123C78.9793 8.80061 78.3711 9.52724 77.9561 10.2111C77.5554 10.895 77.3551 11.5575 77.3551 12.1987C77.3551 12.2984 77.305 12.4694 77.2048 12.7116C77.1189 12.9396 76.983 13.2388 76.7969 13.6092C76.568 14.0509 76.3318 14.5353 76.0886 15.0625C75.8166 15.8603 75.6091 16.5086 75.466 17.0073C75.3229 17.5059 75.2514 17.8621 75.2514 18.0759L75.3802 18.2468C75.509 18.2326 75.6664 18.1043 75.8524 17.8621C76.0385 17.6199 76.2531 17.2637 76.4964 16.7936C76.6109 16.5371 76.7755 16.2379 76.9901 15.896C77.2048 15.554 77.4481 15.148 77.72 14.6778C77.9489 14.3643 78.3139 13.5593 78.8147 12.2628C79.3156 10.9663 79.5875 10.1399 79.6305 9.7837C79.6448 9.49874 79.6806 9.22091 79.7378 8.95021C79.8093 8.66525 79.8737 8.38743 79.931 8.11672Z" stroke="white"/>
<path d="M101.011 19.2727C101.011 19.5576 101.211 19.9423 101.612 20.4267C102.027 20.8969 102.642 21.481 103.458 22.1792C103.987 22.6209 104.531 23.0554 105.089 23.4828C105.662 23.896 106.227 24.3163 106.785 24.7438C107.028 24.9432 107.343 25.2068 107.73 25.5345C108.116 25.848 108.567 26.2184 109.082 26.6458C109.454 26.9308 109.84 27.2157 110.241 27.5007C110.656 27.7856 111.1 28.0706 111.572 28.3556C111.887 28.5978 112.238 28.8613 112.624 29.1463C113.01 29.4313 113.454 29.7376 113.955 30.0653C114.241 30.2363 114.463 30.5497 114.62 31.0056C114.778 31.4473 114.871 32.0243 114.899 32.7367L114.706 33.2924L114.491 33.3992C114.348 33.3992 114.155 33.3351 113.912 33.2069C113.683 33.0929 113.39 32.9219 113.032 32.694C112.96 32.6512 112.631 32.4945 112.044 32.2238C111.472 31.9531 110.642 31.5684 109.554 31.0697C108.953 30.8133 108.402 30.5283 107.901 30.2149C107.4 29.8872 106.943 29.5452 106.528 29.189C106.284 28.9753 105.969 28.7402 105.583 28.4838C105.211 28.2273 104.767 27.9495 104.252 27.6503C103.723 27.3511 103.265 27.0661 102.878 26.7954C102.492 26.5247 102.184 26.2968 101.955 26.1115C101.182 25.4846 100.553 25.0074 100.066 24.6797C99.5797 24.352 99.2434 24.1881 99.0573 24.1881C98.9142 24.3876 98.8355 24.5942 98.8212 24.8079C98.6495 25.4775 98.4634 26.3253 98.2631 27.3511C98.077 28.3627 97.8695 29.5452 97.6406 30.8988C97.6406 31.141 97.5976 31.3191 97.5118 31.4331C97.4259 31.5613 97.2971 31.6254 97.1254 31.6254C96.5672 31.6254 96.1451 31.49 95.8589 31.2193C95.5726 30.9486 95.4295 30.5426 95.4295 30.0012C95.4295 29.2745 95.4725 28.5123 95.5583 27.7144C95.6585 26.9165 95.8159 26.0759 96.0306 25.1926C96.1021 24.8079 96.1522 24.4659 96.1809 24.1667C96.2238 23.8533 96.2453 23.5683 96.2453 23.3119C96.2453 22.6565 95.959 22.0937 95.3866 21.6235C94.8285 21.1534 94.5494 20.8185 94.5494 20.6191C94.5494 20.3056 94.5924 20.0349 94.6782 19.8069C94.7784 19.5647 94.9215 19.3724 95.1075 19.2299C95.5798 18.9307 96.0163 18.6458 96.417 18.3751C96.5172 18.3181 96.5816 18.2255 96.6102 18.0972C96.6531 17.9547 96.6746 17.7624 96.6746 17.5202C96.6746 17.3777 96.6746 17.2281 96.6746 17.0714C96.6746 16.9004 96.6746 16.7437 96.6746 16.6012C96.7175 15.3332 96.7533 14.0153 96.7819 12.6475C96.7819 12.5477 96.7819 12.391 96.7819 12.1773C96.7819 11.9636 96.7676 11.6858 96.739 11.3438C96.7104 11.0874 96.7032 10.8523 96.7175 10.6386C96.7318 10.4106 96.739 10.204 96.739 10.0188C96.6531 9.73383 96.5744 9.49162 96.5028 9.29215C96.4456 9.07844 96.417 8.87897 96.417 8.69375C96.417 8.52278 96.4313 8.2592 96.4599 7.903C96.4885 7.53256 96.5028 7.26898 96.5028 7.11226C96.5028 6.91279 96.4814 6.63496 96.4384 6.27877C96.4098 5.92258 96.3955 5.65187 96.3955 5.46665C96.3955 4.95373 96.51 4.46219 96.739 3.99201C96.9823 3.52184 97.3472 3.05879 97.8337 2.60286C98.306 2.20393 98.7854 1.90473 99.272 1.70526C99.7729 1.49155 100.281 1.38469 100.796 1.38469C101.039 1.38469 101.397 1.40606 101.869 1.4488C102.356 1.4773 102.735 1.49155 103.007 1.49155C103.193 1.49155 103.701 1.64827 104.531 1.96172C104.86 1.99021 105.154 2.03296 105.411 2.08995C105.669 2.13269 105.876 2.18256 106.034 2.23955C106.392 2.41052 106.671 2.54587 106.871 2.64561C107.071 2.73109 107.214 2.78096 107.3 2.79521C107.544 2.88069 107.751 2.95193 107.923 3.00892C108.109 3.06591 108.259 3.13715 108.374 3.22264C108.56 3.30813 108.774 3.40786 109.018 3.52184C109.275 3.63582 109.561 3.76405 109.876 3.90653C110.391 4.16299 110.871 4.46219 111.314 4.80413C111.772 5.14608 112.202 5.51652 112.602 5.91545C113.06 6.42837 113.404 6.93416 113.633 7.43283C113.862 7.91725 113.976 8.40167 113.976 8.88609C113.976 9.02857 113.962 9.23516 113.933 9.50587C113.919 9.76233 113.883 10.0544 113.826 10.3821C113.783 10.7953 113.568 11.2441 113.182 11.7285C112.796 12.1987 112.238 12.7187 111.508 13.2886C110.864 13.7873 110.263 14.2076 109.705 14.5495C109.146 14.8772 108.631 15.1123 108.159 15.2548C107.973 15.383 107.83 15.5041 107.73 15.6181C107.587 15.7606 107.286 15.9601 106.828 16.2165C106.37 16.473 105.748 16.7936 104.961 17.1782C103.529 17.8764 102.513 18.3394 101.912 18.5674C101.311 18.7811 101.011 19.0162 101.011 19.2727ZM98.7568 8.97158C99.0287 8.77211 99.2863 8.57977 99.5296 8.39455C99.7729 8.19508 100.088 8.09535 100.474 8.09535C100.646 8.09535 100.853 8.28769 101.097 8.67238C101.354 9.04282 101.483 9.32065 101.483 9.50587C101.483 9.6056 101.447 9.83357 101.376 10.1898C101.304 10.5459 101.19 11.0304 101.032 11.643C100.703 13.025 100.517 13.8942 100.474 14.2503C100.431 14.5923 100.338 15.1337 100.195 15.8746C100.138 16.0598 100.081 16.302 100.023 16.6012C100.023 16.7294 100.045 16.8221 100.088 16.879C100.145 16.936 100.216 16.9645 100.302 16.9645C103.15 15.5398 104.624 14.7989 104.724 14.7419C104.839 14.7134 104.961 14.6778 105.089 14.635C105.218 14.578 105.34 14.5211 105.454 14.4641L105.776 14.058C106.606 13.5308 107.465 12.9681 108.352 12.3697C108.91 11.9422 109.325 11.5219 109.597 11.1087C109.869 10.6956 110.005 10.2824 110.005 9.86918C110.005 9.34202 109.697 8.82198 109.082 8.30906C108.467 7.79615 107.544 7.3046 106.313 6.83443C105.268 6.42124 104.317 6.12204 103.458 5.93682C102.599 5.73736 101.819 5.63762 101.118 5.63762C100.202 5.63762 99.5081 5.80147 99.0359 6.12917C98.5779 6.44262 98.3489 6.91279 98.3489 7.53969C98.3489 8.02411 98.3847 8.39455 98.4563 8.65101C98.5278 8.89322 98.628 9.00008 98.7568 8.97158Z" stroke="white"/>
<path d="M113.783 23.953L115.737 22.6707C115.808 22.5995 115.894 22.5069 115.994 22.3929C116.094 22.2647 116.209 22.0866 116.338 21.8586C116.438 21.6734 116.567 21.5167 116.724 21.3884C116.896 21.2602 117.089 21.1462 117.304 21.0465C117.418 20.904 117.583 20.7259 117.797 20.5122C118.012 20.2985 118.284 20.0492 118.613 19.7642C118.77 19.6787 118.971 19.5576 119.214 19.4009C119.457 19.2299 119.722 19.0091 120.008 18.7384C121.311 17.5131 122.448 16.5941 123.421 15.9814C124.409 15.3688 125.239 15.0625 125.911 15.0625C126.284 15.0625 126.555 15.1408 126.727 15.2976C126.913 15.4543 127.006 15.6751 127.006 15.9601C127.006 16.2593 126.949 16.5229 126.835 16.7508C126.734 16.9788 126.57 17.1711 126.341 17.3278C125.983 17.5843 125.597 17.8693 125.182 18.1827C124.953 18.4819 124.674 18.8025 124.344 19.1444C124.015 19.4721 123.629 19.7998 123.185 20.1275C123.042 20.3127 122.921 20.4766 122.82 20.6191C122.749 20.6903 122.613 20.8185 122.412 21.0038C122.212 21.189 121.947 21.4027 121.618 21.6449C121.475 21.9583 121.16 22.3644 120.674 22.8631C120.201 23.3617 119.565 23.9601 118.763 24.6583C118.663 24.758 118.484 24.986 118.227 25.3422C117.969 25.6984 117.633 26.1685 117.218 26.7527L117.368 26.945C117.683 26.8453 118.012 26.6743 118.355 26.4321C118.699 26.1899 119.078 25.8693 119.493 25.4704C119.98 25.0287 120.373 24.6725 120.674 24.4018C120.989 24.1169 121.21 23.9317 121.339 23.8462C121.439 23.7892 121.54 23.7322 121.64 23.6752C121.74 23.6182 121.854 23.547 121.983 23.4615C122.641 22.6779 123.257 22.1008 123.829 21.7304C124.402 21.3457 124.931 21.1534 125.418 21.1534C125.718 21.1534 125.947 21.2745 126.105 21.5167C126.262 21.7446 126.355 22.0937 126.384 22.5639C126.355 23.2763 126.341 23.9601 126.341 24.6155C126.326 25.0715 126.448 25.4846 126.706 25.8551C126.978 26.2113 127.328 26.3894 127.758 26.3894C127.886 26.3894 128.008 26.3538 128.122 26.2825C128.251 26.2113 128.38 26.1187 128.509 26.0047C128.609 25.8765 128.702 25.7554 128.788 25.6414C128.888 25.5274 128.988 25.4134 129.088 25.2994C129.146 25.2709 129.224 25.2211 129.325 25.1498C129.439 25.0786 129.546 24.9931 129.647 24.8934C129.847 25.3208 130.011 25.6984 130.14 26.0261C130.283 26.3395 130.391 26.6173 130.462 26.8595C130.133 27.1588 129.804 27.4722 129.475 27.7999C129.16 28.1133 128.824 28.4125 128.466 28.6975C128.037 29.0252 127.622 29.2745 127.221 29.4455C126.82 29.6022 126.419 29.6806 126.019 29.6806C125.089 29.6806 124.373 29.417 123.872 28.8898C123.371 28.3627 123.078 27.5648 122.992 26.4962C122.992 26.368 122.971 26.2398 122.928 26.1115C122.899 25.9691 122.827 25.8266 122.713 25.6841C122.641 25.7554 122.563 25.8337 122.477 25.9192C122.391 25.9904 122.291 26.0902 122.176 26.2184C121.99 26.3609 121.754 26.539 121.468 26.7527C121.196 26.9664 120.874 27.2229 120.502 27.5221C120.001 28.035 119.579 28.4553 119.235 28.783C118.892 29.1107 118.649 29.3458 118.506 29.4882C118.219 29.7305 117.883 29.9727 117.497 30.2149C117.125 30.4571 116.702 30.7064 116.23 30.9629C115.93 31.1196 115.672 31.2407 115.457 31.3262C115.243 31.4259 115.085 31.4758 114.985 31.4758C114.298 31.4758 113.79 31.312 113.461 30.9843C113.132 30.6423 112.967 30.1223 112.967 29.4241C112.967 29.0394 113.053 28.6761 113.225 28.3342C113.382 27.978 113.626 27.636 113.955 27.3084C113.983 27.1231 113.998 26.9735 113.998 26.8595C113.998 26.7883 113.976 26.7171 113.933 26.6458C113.905 26.5603 113.862 26.4677 113.805 26.368C113.719 26.1685 113.626 25.9477 113.525 25.7055C113.411 25.449 113.289 25.1783 113.161 24.8934C113.218 24.8364 113.304 24.7295 113.418 24.5728C113.518 24.4018 113.64 24.1952 113.783 23.953Z" stroke="white"/>
<path d="M129.625 24.8934C129.682 24.7936 129.761 24.6868 129.861 24.5728C129.947 24.4446 130.054 24.295 130.183 24.124C130.326 24.01 130.512 23.8462 130.741 23.6324C130.97 23.4187 131.228 23.1694 131.514 22.8844C131.772 22.5995 132.087 22.2504 132.459 21.8372C132.831 21.4098 133.281 20.8969 133.811 20.2985C134.04 20.0563 134.326 19.75 134.67 19.3795C135.013 18.9948 135.421 18.5389 135.893 18.0117C136.294 17.5416 136.723 17.1925 137.181 16.9645C137.639 16.7366 138.126 16.6226 138.641 16.6226C139.156 16.6226 139.535 16.7864 139.779 17.1141C140.022 17.4276 140.144 17.8906 140.144 18.5033C140.144 18.831 140.022 19.4579 139.779 20.384C139.535 21.3101 139.156 22.5354 138.641 24.0599C138.512 24.3448 138.39 24.6155 138.276 24.872C138.19 25.0572 138.133 25.2211 138.104 25.3635C138.076 25.506 138.061 25.6129 138.061 25.6841C138.061 25.7696 138.111 25.8765 138.212 26.0047C138.283 25.9619 138.348 25.905 138.405 25.8337C138.476 25.7625 138.555 25.677 138.641 25.5773C138.755 25.3635 138.927 25.1427 139.156 24.9147C139.399 24.6725 139.686 24.4089 140.015 24.124C140.144 23.8818 140.308 23.6467 140.508 23.4187C140.723 23.1765 140.959 22.9557 141.217 22.7562C141.274 22.6992 141.346 22.6066 141.431 22.4784C141.532 22.3502 141.646 22.2148 141.775 22.0723C141.961 21.8871 142.183 21.6948 142.44 21.4953C142.698 21.2958 142.999 21.0892 143.342 20.8755C143.728 20.6761 144.072 20.5193 144.372 20.4053C144.687 20.2914 144.959 20.2344 145.188 20.2344C145.632 20.2344 146.025 20.3412 146.369 20.5549C146.712 20.7687 147.006 21.1035 147.249 21.5594C147.535 22.4428 147.807 23.262 148.065 24.0171C148.222 24.4588 148.394 24.7865 148.58 25.0002C148.78 25.2139 149.002 25.3208 149.245 25.3208C149.431 25.3208 149.596 25.2852 149.739 25.2139C149.896 25.1427 150.039 25.0358 150.168 24.8934L151.027 26.8595C150.784 27.059 150.533 27.2656 150.276 27.4793C150.018 27.693 149.767 27.8996 149.524 28.0991C149.195 28.3983 148.887 28.612 148.601 28.7402C148.315 28.8542 148.029 28.9112 147.743 28.9112C147.413 28.9112 147.099 28.84 146.798 28.6975C146.497 28.555 146.24 28.3413 146.025 28.0564C145.911 27.9424 145.768 27.7358 145.596 27.4366C145.424 27.1231 145.224 26.7384 144.995 26.2825C144.809 26.0973 144.594 25.8551 144.351 25.5559C144.122 25.2424 143.85 24.8791 143.535 24.4659L143.342 24.4018C143.07 24.4873 142.798 24.6155 142.526 24.7865C142.269 24.9575 141.99 25.1783 141.689 25.449C141.045 26.0189 140.58 26.3751 140.294 26.5176C140.008 26.6601 139.814 26.8239 139.714 27.0092C139.514 27.3511 139.17 27.7928 138.684 28.3342C138.197 28.8756 137.589 29.5167 136.859 30.2576C136.673 30.4428 136.487 30.6281 136.301 30.8133C136.115 30.9843 135.929 31.1552 135.743 31.3262C135.557 31.4829 135.342 31.5898 135.099 31.6468C134.87 31.718 134.612 31.7536 134.326 31.7536C133.754 31.7536 133.439 31.5613 133.382 31.1766C133.339 30.7777 133.296 30.3787 133.253 29.9798C133.468 29.3814 133.711 28.6334 133.983 27.7358C134.255 26.8382 134.569 25.791 134.927 24.5942C134.927 24.5229 134.949 24.4303 134.992 24.3163C135.049 24.1881 135.113 24.0243 135.185 23.8248C135.256 23.6396 135.306 23.4828 135.335 23.3546C135.364 23.2121 135.378 23.091 135.378 22.9913C135.378 22.8916 135.342 22.8132 135.271 22.7562C135.199 22.6992 135.085 22.6707 134.927 22.6707C134.784 22.6707 134.591 22.7562 134.348 22.9272C134.119 23.0982 133.84 23.3689 133.51 23.7393C133.11 24.1667 132.788 24.5016 132.544 24.7438C132.301 24.986 132.137 25.1285 132.051 25.1712C131.908 25.2709 131.736 25.4134 131.536 25.5986C131.35 25.7838 131.135 25.9904 130.892 26.2184C130.863 26.2754 130.82 26.3609 130.763 26.4749C130.706 26.5888 130.613 26.7171 130.484 26.8595C130.427 26.6458 130.326 26.3823 130.183 26.0688C130.04 25.7554 129.854 25.3635 129.625 24.8934Z" stroke="white"/>
<path d="M150.147 24.8934C150.419 24.6227 150.826 24.238 151.37 23.7393C151.928 23.2264 152.63 22.5995 153.474 21.8586C153.56 21.7874 153.775 21.5523 154.118 21.1534C154.461 20.7544 154.955 20.1845 155.599 19.4436C155.9 19.1444 156.265 18.7597 156.694 18.2896C157.123 17.8194 157.61 17.2637 158.154 16.6226C158.511 16.1382 158.862 15.7677 159.205 15.5113C159.563 15.2548 159.907 15.1266 160.236 15.1266C160.651 15.1266 160.951 15.2334 161.137 15.4472C161.338 15.6466 161.438 15.9387 161.438 16.3234C161.438 16.5656 161.402 16.9218 161.331 17.392C161.259 17.8621 161.223 18.2183 161.223 18.4605C161.223 18.8595 161.159 19.5576 161.03 20.5549C160.916 21.5523 160.73 22.8488 160.472 24.4446C160.458 24.5443 160.422 24.7153 160.365 24.9575C160.322 25.1854 160.25 25.4918 160.15 25.8765C160.064 26.1614 160.007 26.425 159.978 26.6672C159.95 26.9094 159.935 27.116 159.935 27.287C159.95 27.401 159.957 27.4936 159.957 27.5648C160.658 27.0519 161.266 26.5746 161.781 26.1329C162.311 25.6912 162.747 25.2781 163.091 24.8934L163.949 26.8595C163.806 26.9308 162.805 27.8141 160.944 29.5096C160.858 29.7661 160.665 30.0368 160.365 30.3217C160.078 30.6067 159.685 30.8988 159.184 31.198C159.041 31.4402 158.869 31.7536 158.669 32.1383C158.468 32.5373 158.239 33.0003 157.982 33.5275C157.839 33.9122 157.71 34.2755 157.595 34.6174C157.495 34.9736 157.409 35.2871 157.338 35.5578C157.195 36.1277 156.944 36.8044 156.587 37.5881C156.229 38.3717 155.792 39.2835 155.277 40.3236C154.647 41.5632 154.082 42.4893 153.581 43.1019C153.095 43.7146 152.687 44.0138 152.358 43.9995C152.014 43.971 151.735 43.9425 151.521 43.914C151.32 43.8998 151.191 43.8784 151.134 43.8499C151.005 43.7644 150.92 43.6148 150.877 43.4011C150.819 43.2016 150.791 42.9381 150.791 42.6104C150.791 42.3967 150.826 42.0618 150.898 41.6059C150.97 41.1642 151.077 40.6157 151.22 39.9603C151.32 39.5044 151.449 39.0556 151.606 38.6139C151.778 38.1865 151.971 37.759 152.186 37.3316C152.372 36.9184 152.565 36.5195 152.766 36.1348C152.966 35.7501 153.173 35.3369 153.388 34.8952C153.86 34.3253 154.318 33.7056 154.762 33.0359C155.22 32.3663 155.678 31.6396 156.136 30.856C156.222 30.5568 156.308 30.1793 156.393 29.7233C156.494 29.2532 156.594 28.6975 156.694 28.0564C156.823 27.3725 156.93 26.7456 157.016 26.1757C157.087 25.6912 157.145 25.3066 157.188 25.0216C157.245 24.7366 157.266 24.5443 157.252 24.4446L157.123 23.3332L157.488 22.1792C157.431 22.0082 157.352 21.88 157.252 21.7945C157.166 21.6948 157.066 21.6449 156.951 21.6449C156.68 21.6449 156.422 21.7161 156.179 21.8586C155.935 22.0011 155.706 22.2077 155.492 22.4784C155.249 22.8061 154.948 23.1552 154.59 23.5256C154.232 23.8818 153.81 24.2807 153.324 24.7224C152.723 25.2638 152.229 25.7126 151.843 26.0688C151.456 26.4107 151.177 26.6743 151.005 26.8595C150.934 26.6743 150.848 26.4535 150.748 26.197C150.633 25.9406 150.519 25.6414 150.404 25.2994C150.376 25.2139 150.34 25.1356 150.297 25.0643C150.254 24.9931 150.204 24.9361 150.147 24.8934ZM163.778 5.14608C164.107 5.14608 164.343 5.21731 164.486 5.35979C164.644 5.50227 164.722 5.70886 164.722 5.97957C164.722 6.26452 164.665 6.60646 164.551 7.0054C164.436 7.40433 164.271 7.84601 164.057 8.33043C163.885 8.72937 163.728 9.10693 163.585 9.46313C163.484 9.70534 163.148 10.0188 162.576 10.4035C162.017 10.7739 161.595 10.9591 161.309 10.9591C160.923 10.9591 160.594 10.9378 160.322 10.895C160.064 10.838 159.864 10.7597 159.721 10.6599C159.592 10.5602 159.484 10.3821 159.399 10.1256C159.327 9.85494 159.291 9.51299 159.291 9.09981C159.291 8.43017 159.864 7.6038 161.009 6.62071C162.153 5.63762 163.076 5.14608 163.778 5.14608Z" stroke="white"/>
<path d="M163.756 23.953L165.71 22.6707C165.781 22.5995 165.867 22.5069 165.967 22.3929C166.067 22.2647 166.182 22.0866 166.311 21.8586C166.411 21.6734 166.54 21.5167 166.697 21.3884C166.869 21.2602 167.062 21.1462 167.277 21.0465C167.391 20.904 167.556 20.7259 167.77 20.5122C167.985 20.2985 168.257 20.0492 168.586 19.7642C168.744 19.6787 168.944 19.5576 169.187 19.4009C169.43 19.2299 169.695 19.0091 169.981 18.7384C171.284 17.5131 172.421 16.5941 173.395 15.9814C174.382 15.3688 175.212 15.0625 175.885 15.0625C176.257 15.0625 176.529 15.1408 176.7 15.2976C176.886 15.4543 176.979 15.6751 176.979 15.9601C176.979 16.2593 176.922 16.5229 176.808 16.7508C176.707 16.9788 176.543 17.1711 176.314 17.3278C175.956 17.5843 175.57 17.8693 175.155 18.1827C174.926 18.4819 174.647 18.8025 174.318 19.1444C173.988 19.4721 173.602 19.7998 173.158 20.1275C173.015 20.3127 172.894 20.4766 172.794 20.6191C172.722 20.6903 172.586 20.8185 172.386 21.0038C172.185 21.189 171.921 21.4027 171.591 21.6449C171.448 21.9583 171.133 22.3644 170.647 22.8631C170.175 23.3617 169.538 23.9601 168.736 24.6583C168.636 24.758 168.457 24.986 168.2 25.3422C167.942 25.6984 167.606 26.1685 167.191 26.7527L167.341 26.945C167.656 26.8453 167.985 26.6743 168.329 26.4321C168.672 26.1899 169.051 25.8693 169.466 25.4704C169.953 25.0287 170.346 24.6725 170.647 24.4018C170.962 24.1169 171.184 23.9317 171.312 23.8462C171.413 23.7892 171.513 23.7322 171.613 23.6752C171.713 23.6182 171.828 23.547 171.956 23.4615C172.615 22.6779 173.23 22.1008 173.802 21.7304C174.375 21.3457 174.904 21.1534 175.391 21.1534C175.691 21.1534 175.92 21.2745 176.078 21.5167C176.235 21.7446 176.328 22.0937 176.357 22.5639C176.328 23.2763 176.314 23.9601 176.314 24.6155C176.3 25.0715 176.421 25.4846 176.679 25.8551C176.951 26.2113 177.301 26.3894 177.731 26.3894C177.86 26.3894 177.981 26.3538 178.096 26.2825C178.224 26.2113 178.353 26.1187 178.482 26.0047C178.582 25.8765 178.675 25.7554 178.761 25.6414C178.861 25.5274 178.961 25.4134 179.062 25.2994C179.119 25.2709 179.198 25.2211 179.298 25.1498C179.412 25.0786 179.52 24.9931 179.62 24.8934C179.82 25.3208 179.985 25.6984 180.113 26.0261C180.257 26.3395 180.364 26.6173 180.435 26.8595C180.106 27.1588 179.777 27.4722 179.448 27.7999C179.133 28.1133 178.797 28.4125 178.439 28.6975C178.01 29.0252 177.595 29.2745 177.194 29.4455C176.793 29.6022 176.393 29.6806 175.992 29.6806C175.062 29.6806 174.346 29.417 173.845 28.8898C173.344 28.3627 173.051 27.5648 172.965 26.4962C172.965 26.368 172.944 26.2398 172.901 26.1115C172.872 25.9691 172.801 25.8266 172.686 25.6841C172.615 25.7554 172.536 25.8337 172.45 25.9192C172.364 25.9904 172.264 26.0902 172.15 26.2184C171.963 26.3609 171.727 26.539 171.441 26.7527C171.169 26.9664 170.847 27.2229 170.475 27.5221C169.974 28.035 169.552 28.4553 169.209 28.783C168.865 29.1107 168.622 29.3458 168.479 29.4882C168.193 29.7305 167.856 29.9727 167.47 30.2149C167.098 30.4571 166.676 30.7064 166.203 30.9629C165.903 31.1196 165.645 31.2407 165.431 31.3262C165.216 31.4259 165.059 31.4758 164.958 31.4758C164.271 31.4758 163.763 31.312 163.434 30.9843C163.105 30.6423 162.941 30.1223 162.941 29.4241C162.941 29.0394 163.026 28.6761 163.198 28.3342C163.356 27.978 163.599 27.636 163.928 27.3084C163.957 27.1231 163.971 26.9735 163.971 26.8595C163.971 26.7883 163.949 26.7171 163.907 26.6458C163.878 26.5603 163.835 26.4677 163.778 26.368C163.692 26.1685 163.599 25.9477 163.499 25.7055C163.384 25.449 163.263 25.1783 163.134 24.8934C163.191 24.8364 163.277 24.7295 163.391 24.5728C163.492 24.4018 163.613 24.1952 163.756 23.953Z" stroke="white"/>
<path d="M179.598 24.8934C179.656 24.7936 179.734 24.6868 179.834 24.5728C179.92 24.4446 180.028 24.295 180.156 24.124C180.299 24.01 180.486 23.8462 180.715 23.6324C180.943 23.4187 181.201 23.1694 181.487 22.8844C181.745 22.5995 182.06 22.2504 182.432 21.8372C182.804 21.4098 183.255 20.8969 183.784 20.2985C184.013 20.0563 184.299 19.75 184.643 19.3795C184.986 18.9948 185.394 18.5389 185.866 18.0117C186.267 17.5416 186.696 17.1925 187.154 16.9645C187.612 16.7366 188.099 16.6226 188.614 16.6226C189.129 16.6226 189.508 16.7864 189.752 17.1141C189.995 17.4276 190.117 17.8906 190.117 18.5033C190.117 18.831 189.995 19.4579 189.752 20.384C189.508 21.3101 189.129 22.5354 188.614 24.0599C188.485 24.3448 188.364 24.6155 188.249 24.872C188.163 25.0572 188.106 25.2211 188.077 25.3635C188.049 25.506 188.034 25.6129 188.034 25.6841C188.034 25.7696 188.085 25.8765 188.185 26.0047C188.256 25.9619 188.321 25.905 188.378 25.8337C188.449 25.7625 188.528 25.677 188.614 25.5773C188.729 25.3635 188.9 25.1427 189.129 24.9147C189.373 24.6725 189.659 24.4089 189.988 24.124C190.117 23.8818 190.281 23.6467 190.482 23.4187C190.696 23.1765 190.932 22.9557 191.19 22.7562C191.247 22.6992 191.319 22.6066 191.405 22.4784C191.505 22.3502 191.619 22.2148 191.748 22.0723C191.934 21.8871 192.156 21.6948 192.414 21.4953C192.671 21.2958 192.972 21.0892 193.315 20.8755C193.702 20.6761 194.045 20.5193 194.346 20.4053C194.66 20.2914 194.932 20.2344 195.161 20.2344C195.605 20.2344 195.998 20.3412 196.342 20.5549C196.685 20.7687 196.979 21.1035 197.222 21.5594C197.508 22.4428 197.78 23.262 198.038 24.0171C198.195 24.4588 198.367 24.7865 198.553 25.0002C198.753 25.2139 198.975 25.3208 199.218 25.3208C199.404 25.3208 199.569 25.2852 199.712 25.2139C199.869 25.1427 200.013 25.0358 200.141 24.8934L201 26.8595C200.757 27.059 200.506 27.2656 200.249 27.4793C199.991 27.693 199.741 27.8996 199.497 28.0991C199.168 28.3983 198.861 28.612 198.574 28.7402C198.288 28.8542 198.002 28.9112 197.716 28.9112C197.387 28.9112 197.072 28.84 196.771 28.6975C196.471 28.555 196.213 28.3413 195.998 28.0564C195.884 27.9424 195.741 27.7358 195.569 27.4366C195.397 27.1231 195.197 26.7384 194.968 26.2825C194.782 26.0973 194.567 25.8551 194.324 25.5559C194.095 25.2424 193.823 24.8791 193.508 24.4659L193.315 24.4018C193.043 24.4873 192.771 24.6155 192.499 24.7865C192.242 24.9575 191.963 25.1783 191.662 25.449C191.018 26.0189 190.553 26.3751 190.267 26.5176C189.981 26.6601 189.788 26.8239 189.687 27.0092C189.487 27.3511 189.144 27.7928 188.657 28.3342C188.17 28.8756 187.562 29.5167 186.832 30.2576C186.646 30.4428 186.46 30.6281 186.274 30.8133C186.088 30.9843 185.902 31.1552 185.716 31.3262C185.53 31.4829 185.315 31.5898 185.072 31.6468C184.843 31.718 184.586 31.7536 184.299 31.7536C183.727 31.7536 183.412 31.5613 183.355 31.1766C183.312 30.7777 183.269 30.3787 183.226 29.9798C183.441 29.3814 183.684 28.6334 183.956 27.7358C184.228 26.8382 184.543 25.791 184.9 24.5942C184.9 24.5229 184.922 24.4303 184.965 24.3163C185.022 24.1881 185.086 24.0243 185.158 23.8248C185.23 23.6396 185.28 23.4828 185.308 23.3546C185.337 23.2121 185.351 23.091 185.351 22.9913C185.351 22.8916 185.315 22.8132 185.244 22.7562C185.172 22.6992 185.058 22.6707 184.9 22.6707C184.757 22.6707 184.564 22.7562 184.321 22.9272C184.092 23.0982 183.813 23.3689 183.484 23.7393C183.083 24.1667 182.761 24.5016 182.518 24.7438C182.274 24.986 182.11 25.1285 182.024 25.1712C181.881 25.2709 181.709 25.4134 181.509 25.5986C181.323 25.7838 181.108 25.9904 180.865 26.2184C180.836 26.2754 180.793 26.3609 180.736 26.4749C180.679 26.5888 180.586 26.7171 180.457 26.8595C180.4 26.6458 180.299 26.3823 180.156 26.0688C180.013 25.7554 179.827 25.3635 179.598 24.8934Z" stroke="white"/>
</svg>
