<svg id="name" width="294" height="65" viewBox="0 0 294 65" fill="none" xmlns="http://www.w3.org/2000/svg">
            <path d="M10.8438 27.4688C10.8438 27.8854 11.1354 28.4479 11.7188 29.1562C12.3229 29.8438 13.2188 30.6979 14.4062 31.7188C15.1771 32.3646 15.9688 33 16.7812 33.625C17.6146 34.2292 18.4375 34.8438 19.25 35.4688C19.6042 35.7604 20.0625 36.1458 20.625 36.625C21.1875 37.0833 21.8438 37.625 22.5938 38.25C23.1354 38.6667 23.6979 39.0833 24.2812 39.5C24.8854 39.9167 25.5312 40.3333 26.2188 40.75C26.6771 41.1042 27.1875 41.4896 27.75 41.9062C28.3125 42.3229 28.9583 42.7708 29.6875 43.25C30.1042 43.5 30.4271 43.9583 30.6562 44.625C30.8854 45.2708 31.0208 46.1146 31.0625 47.1562L30.7812 47.9688L30.4688 48.125C30.2604 48.125 29.9792 48.0312 29.625 47.8438C29.2917 47.6771 28.8646 47.4271 28.3438 47.0938C28.2396 47.0312 27.7604 46.8021 26.9062 46.4062C26.0729 46.0104 24.8646 45.4479 23.2812 44.7188C22.4062 44.3438 21.6042 43.9271 20.875 43.4688C20.1458 42.9896 19.4792 42.4896 18.875 41.9688C18.5208 41.6562 18.0625 41.3125 17.5 40.9375C16.9583 40.5625 16.3125 40.1562 15.5625 39.7188C14.7917 39.2812 14.125 38.8646 13.5625 38.4688C13 38.0729 12.5521 37.7396 12.2188 37.4688C11.0938 36.5521 10.1771 35.8542 9.46875 35.375C8.76042 34.8958 8.27083 34.6562 8 34.6562C7.79167 34.9479 7.67708 35.25 7.65625 35.5625C7.40625 36.5417 7.13542 37.7812 6.84375 39.2812C6.57292 40.7604 6.27083 42.4896 5.9375 44.4688C5.9375 44.8229 5.875 45.0833 5.75 45.25C5.625 45.4375 5.4375 45.5312 5.1875 45.5312C4.375 45.5312 3.76042 45.3333 3.34375 44.9375C2.92708 44.5417 2.71875 43.9479 2.71875 43.1562C2.71875 42.0938 2.78125 40.9792 2.90625 39.8125C3.05208 38.6458 3.28125 37.4167 3.59375 36.125C3.69792 35.5625 3.77083 35.0625 3.8125 34.625C3.875 34.1667 3.90625 33.75 3.90625 33.375C3.90625 32.4167 3.48958 31.5938 2.65625 30.9062C1.84375 30.2188 1.4375 29.7292 1.4375 29.4375C1.4375 28.9792 1.5 28.5833 1.625 28.25C1.77083 27.8958 1.97917 27.6146 2.25 27.4062C2.9375 26.9688 3.57292 26.5521 4.15625 26.1562C4.30208 26.0729 4.39583 25.9375 4.4375 25.75C4.5 25.5417 4.53125 25.2604 4.53125 24.9062C4.53125 24.6979 4.53125 24.4792 4.53125 24.25C4.53125 24 4.53125 23.7708 4.53125 23.5625C4.59375 21.7083 4.64583 19.7812 4.6875 17.7812C4.6875 17.6354 4.6875 17.4062 4.6875 17.0938C4.6875 16.7812 4.66667 16.375 4.625 15.875C4.58333 15.5 4.57292 15.1562 4.59375 14.8438C4.61458 14.5104 4.625 14.2083 4.625 13.9375C4.5 13.5208 4.38542 13.1667 4.28125 12.875C4.19792 12.5625 4.15625 12.2708 4.15625 12C4.15625 11.75 4.17708 11.3646 4.21875 10.8438C4.26042 10.3021 4.28125 9.91667 4.28125 9.6875C4.28125 9.39583 4.25 8.98958 4.1875 8.46875C4.14583 7.94792 4.125 7.55208 4.125 7.28125C4.125 6.53125 4.29167 5.8125 4.625 5.125C4.97917 4.4375 5.51042 3.76042 6.21875 3.09375C6.90625 2.51042 7.60417 2.07292 8.3125 1.78125C9.04167 1.46875 9.78125 1.3125 10.5312 1.3125C10.8854 1.3125 11.4062 1.34375 12.0938 1.40625C12.8021 1.44792 13.3542 1.46875 13.75 1.46875C14.0208 1.46875 14.7604 1.69792 15.9688 2.15625C16.4479 2.19792 16.875 2.26042 17.25 2.34375C17.625 2.40625 17.9271 2.47917 18.1562 2.5625C18.6771 2.8125 19.0833 3.01042 19.375 3.15625C19.6667 3.28125 19.875 3.35417 20 3.375C20.3542 3.5 20.6562 3.60417 20.9062 3.6875C21.1771 3.77083 21.3958 3.875 21.5625 4C21.8333 4.125 22.1458 4.27083 22.5 4.4375C22.875 4.60417 23.2917 4.79167 23.75 5C24.5 5.375 25.1979 5.8125 25.8438 6.3125C26.5104 6.8125 27.1354 7.35417 27.7188 7.9375C28.3854 8.6875 28.8854 9.42708 29.2188 10.1562C29.5521 10.8646 29.7188 11.5729 29.7188 12.2812C29.7188 12.4896 29.6979 12.7917 29.6562 13.1875C29.6354 13.5625 29.5833 13.9896 29.5 14.4688C29.4375 15.0729 29.125 15.7292 28.5625 16.4375C28 17.125 27.1875 17.8854 26.125 18.7188C25.1875 19.4479 24.3125 20.0625 23.5 20.5625C22.6875 21.0417 21.9375 21.3854 21.25 21.5938C20.9792 21.7812 20.7708 21.9583 20.625 22.125C20.4167 22.3333 19.9792 22.625 19.3125 23C18.6458 23.375 17.7396 23.8438 16.5938 24.4062C14.5104 25.4271 13.0312 26.1042 12.1562 26.4375C11.2812 26.75 10.8438 27.0938 10.8438 27.4688ZM7.5625 12.4062C7.95833 12.1146 8.33333 11.8333 8.6875 11.5625C9.04167 11.2708 9.5 11.125 10.0625 11.125C10.3125 11.125 10.6146 11.4062 10.9688 11.9688C11.3438 12.5104 11.5312 12.9167 11.5312 13.1875C11.5312 13.3333 11.4792 13.6667 11.375 14.1875C11.2708 14.7083 11.1042 15.4167 10.875 16.3125C10.3958 18.3333 10.125 19.6042 10.0625 20.125C10 20.625 9.86458 21.4167 9.65625 22.5C9.57292 22.7708 9.48958 23.125 9.40625 23.5625C9.40625 23.75 9.4375 23.8854 9.5 23.9688C9.58333 24.0521 9.6875 24.0938 9.8125 24.0938C13.9583 22.0104 16.1042 20.9271 16.25 20.8438C16.4167 20.8021 16.5938 20.75 16.7812 20.6875C16.9688 20.6042 17.1458 20.5208 17.3125 20.4375L17.7812 19.8438C18.9896 19.0729 20.2396 18.25 21.5312 17.375C22.3438 16.75 22.9479 16.1354 23.3438 15.5312C23.7396 14.9271 23.9375 14.3229 23.9375 13.7188C23.9375 12.9479 23.4896 12.1875 22.5938 11.4375C21.6979 10.6875 20.3542 9.96875 18.5625 9.28125C17.0417 8.67708 15.6562 8.23958 14.4062 7.96875C13.1562 7.67708 12.0208 7.53125 11 7.53125C9.66667 7.53125 8.65625 7.77083 7.96875 8.25C7.30208 8.70833 6.96875 9.39583 6.96875 10.3125C6.96875 11.0208 7.02083 11.5625 7.125 11.9375C7.22917 12.2917 7.375 12.4479 7.5625 12.4062Z" stroke="white"/>
            <path d="M29.4375 34.3125L32.2812 32.4375C32.3854 32.3333 32.5104 32.1979 32.6562 32.0312C32.8021 31.8438 32.9688 31.5833 33.1562 31.25C33.3021 30.9792 33.4896 30.75 33.7188 30.5625C33.9688 30.375 34.25 30.2083 34.5625 30.0625C34.7292 29.8542 34.9688 29.5938 35.2812 29.2812C35.5938 28.9688 35.9896 28.6042 36.4688 28.1875C36.6979 28.0625 36.9896 27.8854 37.3438 27.6562C37.6979 27.4062 38.0833 27.0833 38.5 26.6875C40.3958 24.8958 42.0521 23.5521 43.4688 22.6562C44.9062 21.7604 46.1146 21.3125 47.0938 21.3125C47.6354 21.3125 48.0312 21.4271 48.2812 21.6562C48.5521 21.8854 48.6875 22.2083 48.6875 22.625C48.6875 23.0625 48.6042 23.4479 48.4375 23.7812C48.2917 24.1146 48.0521 24.3958 47.7188 24.625C47.1979 25 46.6354 25.4167 46.0312 25.875C45.6979 26.3125 45.2917 26.7812 44.8125 27.2812C44.3333 27.7604 43.7708 28.2396 43.125 28.7188C42.9167 28.9896 42.7396 29.2292 42.5938 29.4375C42.4896 29.5417 42.2917 29.7292 42 30C41.7083 30.2708 41.3229 30.5833 40.8438 30.9375C40.6354 31.3958 40.1771 31.9896 39.4688 32.7188C38.7812 33.4479 37.8542 34.3229 36.6875 35.3438C36.5417 35.4896 36.2812 35.8229 35.9062 36.3438C35.5312 36.8646 35.0417 37.5521 34.4375 38.4062L34.6562 38.6875C35.1146 38.5417 35.5938 38.2917 36.0938 37.9375C36.5938 37.5833 37.1458 37.1146 37.75 36.5312C38.4583 35.8854 39.0312 35.3646 39.4688 34.9688C39.9271 34.5521 40.25 34.2812 40.4375 34.1562C40.5833 34.0729 40.7292 33.9896 40.875 33.9062C41.0208 33.8229 41.1875 33.7188 41.375 33.5938C42.3333 32.4479 43.2292 31.6042 44.0625 31.0625C44.8958 30.5 45.6667 30.2188 46.375 30.2188C46.8125 30.2188 47.1458 30.3958 47.375 30.75C47.6042 31.0833 47.7396 31.5938 47.7812 32.2812C47.7396 33.3229 47.7188 34.3229 47.7188 35.2812C47.6979 35.9479 47.875 36.5521 48.25 37.0938C48.6458 37.6146 49.1562 37.875 49.7812 37.875C49.9688 37.875 50.1458 37.8229 50.3125 37.7188C50.5 37.6146 50.6875 37.4792 50.875 37.3125C51.0208 37.125 51.1562 36.9479 51.2812 36.7812C51.4271 36.6146 51.5729 36.4479 51.7188 36.2812C51.8021 36.2396 51.9167 36.1667 52.0625 36.0625C52.2292 35.9583 52.3854 35.8333 52.5312 35.6875C52.8229 36.3125 53.0625 36.8646 53.25 37.3438C53.4583 37.8021 53.6146 38.2083 53.7188 38.5625C53.2396 39 52.7604 39.4583 52.2812 39.9375C51.8229 40.3958 51.3333 40.8333 50.8125 41.25C50.1875 41.7292 49.5833 42.0938 49 42.3438C48.4167 42.5729 47.8333 42.6875 47.25 42.6875C45.8958 42.6875 44.8542 42.3021 44.125 41.5312C43.3958 40.7604 42.9688 39.5938 42.8438 38.0312C42.8438 37.8438 42.8125 37.6562 42.75 37.4688C42.7083 37.2604 42.6042 37.0521 42.4375 36.8438C42.3333 36.9479 42.2188 37.0625 42.0938 37.1875C41.9688 37.2917 41.8229 37.4375 41.6562 37.625C41.3854 37.8333 41.0417 38.0938 40.625 38.4062C40.2292 38.7188 39.7604 39.0938 39.2188 39.5312C38.4896 40.2812 37.875 40.8958 37.375 41.375C36.875 41.8542 36.5208 42.1979 36.3125 42.4062C35.8958 42.7604 35.4062 43.1146 34.8438 43.4688C34.3021 43.8229 33.6875 44.1875 33 44.5625C32.5625 44.7917 32.1875 44.9688 31.875 45.0938C31.5625 45.2396 31.3333 45.3125 31.1875 45.3125C30.1875 45.3125 29.4479 45.0729 28.9688 44.5938C28.4896 44.0938 28.25 43.3333 28.25 42.3125C28.25 41.75 28.375 41.2188 28.625 40.7188C28.8542 40.1979 29.2083 39.6979 29.6875 39.2188C29.7292 38.9479 29.75 38.7292 29.75 38.5625C29.75 38.4583 29.7188 38.3542 29.6562 38.25C29.6146 38.125 29.5521 37.9896 29.4688 37.8438C29.3438 37.5521 29.2083 37.2292 29.0625 36.875C28.8958 36.5 28.7188 36.1042 28.5312 35.6875C28.6146 35.6042 28.7396 35.4479 28.9062 35.2188C29.0521 34.9688 29.2292 34.6667 29.4375 34.3125Z" stroke="white"/>
            <path d="M52.5 35.6875C52.9583 35.2917 53.3125 34.9792 53.5625 34.75C53.8125 34.5208 54.0104 34.3229 54.1562 34.1562C54.4896 33.8438 54.7604 33.5417 54.9688 33.25C55.1771 32.9583 55.2917 32.6979 55.3125 32.4688C55.5 31.7604 55.7188 30.875 55.9688 29.8125C56.2188 28.75 56.5417 27.5208 56.9375 26.125C57.125 25.7083 57.3229 25.1875 57.5312 24.5625C57.7604 23.9167 58 23.1979 58.25 22.4062C58.5 21.3646 58.8125 20.4167 59.1875 19.5625C59.5625 18.7083 59.9792 17.9375 60.4375 17.25C60.5833 17.0625 60.7292 16.8333 60.875 16.5625C61.0208 16.2708 61.1667 15.9375 61.3125 15.5625C61.4583 15.2292 61.6562 14.8438 61.9062 14.4062C62.1771 13.9479 62.4792 13.4167 62.8125 12.8125C63.6667 11.5625 64.4167 10.4896 65.0625 9.59375C65.7083 8.69792 66.2396 7.97917 66.6562 7.4375C67.4062 6.54167 68.1562 5.70833 68.9062 4.9375C69.6771 4.14583 70.4479 3.41667 71.2188 2.75C71.9271 2.14583 72.5417 1.70833 73.0625 1.4375C73.5833 1.14583 74 1 74.3125 1C74.6042 1.25 74.8125 1.47917 74.9375 1.6875C75.0833 1.6875 75.2292 1.66667 75.375 1.625C75.9167 1.625 76.3125 1.84375 76.5625 2.28125C76.8125 2.71875 76.9375 3.36458 76.9375 4.21875C76.9375 4.40625 76.9062 4.65625 76.8438 4.96875C76.7812 5.26042 76.6979 5.625 76.5938 6.0625C76.4479 6.20833 76.3438 6.39583 76.2812 6.625C76.2188 6.85417 76.1667 7.08333 76.125 7.3125C76.1042 7.60417 76.0729 7.85417 76.0312 8.0625C75.9896 8.27083 75.9375 8.45833 75.875 8.625C75.6042 9.125 75.3125 9.73958 75 10.4688C74.6875 11.1771 74.3542 12.0104 74 12.9688C73.7917 13.3229 73.5312 13.7917 73.2188 14.375C72.9062 14.9583 72.5312 15.6042 72.0938 16.3125C71.8854 16.7083 71.6146 17.2083 71.2812 17.8125C70.9688 18.3958 70.5625 19.0729 70.0625 19.8438C69.9375 20.1354 69.7188 20.4583 69.4062 20.8125C69.1146 21.1458 68.7604 21.5417 68.3438 22C68.2188 22.3333 67.8646 22.9062 67.2812 23.7188C66.7188 24.5312 65.9271 25.5833 64.9062 26.875C64.4062 27.5208 63.7604 28.3229 62.9688 29.2812C62.1771 30.2396 61.2604 31.375 60.2188 32.6875C59.8229 34.25 59.5208 35.6458 59.3125 36.875C59.125 38.0833 59.0312 39.1354 59.0312 40.0312C59.0312 40.3854 59.0521 40.6562 59.0938 40.8438C59.1562 41.0104 59.2604 41.0938 59.4062 41.0938C59.5104 40.9479 59.6562 40.7812 59.8438 40.5938C60.0521 40.4062 60.2604 40.1875 60.4688 39.9375C60.8646 39.5833 61.3229 38.9271 61.8438 37.9688C62.3854 37.0104 63 35.7708 63.6875 34.25C64.2917 32.875 64.8333 31.8229 65.3125 31.0938C65.7917 30.3438 66.1875 29.8958 66.5 29.75L67.5938 29.2812C67.8021 29.1979 67.9896 29.125 68.1562 29.0625C68.3229 29 68.4583 28.9688 68.5625 28.9688C68.8333 28.9688 69.0833 29.1354 69.3125 29.4688C69.5417 29.8021 69.7292 30.2604 69.875 30.8438C70.1458 31.9062 70.3646 32.7292 70.5312 33.3125C70.6979 33.875 70.7917 34.2083 70.8125 34.3125C71.0833 34.9375 71.4062 35.3958 71.7812 35.6875C72.1771 35.9792 72.6458 36.125 73.1875 36.125C73.8333 36.0208 74.5938 35.875 75.4688 35.6875C75.6354 36.1042 75.8229 36.5521 76.0312 37.0312C76.2604 37.5104 76.4896 38.0208 76.7188 38.5625C76.2188 38.8958 75.7083 39.2188 75.1875 39.5312C74.6875 39.8438 74.1875 40.1562 73.6875 40.4688C73.3542 40.6562 72.875 40.8021 72.25 40.9062C71.625 40.9896 70.8958 41.0312 70.0625 41.0312C68.7917 41.0312 67.8021 40.4375 67.0938 39.25C66.4062 38.0417 65.9896 37.4479 65.8438 37.4688H65.6562C65.3229 37.8854 64.9688 38.3125 64.5938 38.75C64.2396 39.1875 63.8854 39.6458 63.5312 40.125C63.3021 40.6042 62.9792 41.1562 62.5625 41.7812C62.1458 42.4062 61.6458 43.0938 61.0625 43.8438C60.375 44.6771 59.7708 45.3021 59.25 45.7188C58.7292 46.1354 58.2812 46.3438 57.9062 46.3438C57.1146 46.3438 56.4896 46.25 56.0312 46.0625C55.5938 45.8958 55.3333 45.6354 55.25 45.2812C55 44.1146 54.8021 43.1042 54.6562 42.25C54.5312 41.375 54.4688 40.6354 54.4688 40.0312C54.4688 39.8438 54.4792 39.6771 54.5 39.5312C54.5208 39.3854 54.5417 39.25 54.5625 39.125C54.625 38.8542 54.6979 38.5625 54.7812 38.25C54.7812 38.1458 54.75 38.0729 54.6875 38.0312C54.6458 37.9688 54.5625 37.9375 54.4375 37.9375C54.375 38.0208 54.2917 38.1146 54.1875 38.2188C54.0833 38.3229 53.9375 38.4375 53.75 38.5625C53.6667 38.2917 53.5208 37.9167 53.3125 37.4375C53.1042 36.9583 52.8333 36.375 52.5 35.6875ZM72.8125 6.8125C72.5833 6.8125 72.125 7.22917 71.4375 8.0625C70.75 8.875 69.875 10.0833 68.8125 11.6875C68.2083 12.5833 67.6146 13.4792 67.0312 14.375C66.4479 15.25 65.875 16.1146 65.3125 16.9688C65.0625 17.2188 64.875 17.4688 64.75 17.7188C64.6458 17.9688 64.5938 18.2292 64.5938 18.5C64.1771 19.6667 63.7708 20.7604 63.375 21.7812C63 22.8854 62.6875 23.7396 62.4375 24.3438C62.2083 24.9479 62.0729 25.3021 62.0312 25.4062L62.1875 25.5625C62.6042 25.1875 62.9583 24.7917 63.25 24.375C63.6667 23.8958 64.1667 23.2812 64.75 22.5312C65.3542 21.7604 66.0312 20.8646 66.7812 19.8438C67.5312 18.8854 68.3021 17.6771 69.0938 16.2188C69.8854 14.7396 70.7396 13.0417 71.6562 11.125C72.1771 10.0833 72.5625 9.25 72.8125 8.625C73.0833 8 73.2188 7.5625 73.2188 7.3125C73.2188 7.16667 73.1875 7.05208 73.125 6.96875C73.0833 6.86458 72.9792 6.8125 72.8125 6.8125Z" stroke="white"/>
            <path d="M75.4375 35.6875C75.5208 35.625 75.5938 35.5521 75.6562 35.4688C75.6979 35.3854 75.7188 35.2812 75.7188 35.1562C76.0729 34.8646 76.4688 34.4688 76.9062 33.9688C77.3646 33.4479 77.875 32.8438 78.4375 32.1562C78.8958 31.5312 79.3646 30.9062 79.8438 30.2812C80.3438 29.6562 80.875 29.0312 81.4375 28.4062C81.8958 27.7812 82.3438 27.1354 82.7812 26.4688C83.2396 25.7812 83.7188 25.1146 84.2188 24.4688C85.0521 24.0729 85.6979 23.7917 86.1562 23.625C86.6146 23.4583 86.9271 23.375 87.0938 23.375C87.4062 23.375 87.6458 23.4792 87.8125 23.6875C87.9792 23.875 88.0625 24.1562 88.0625 24.5312C88.0625 24.6562 88.0312 24.8333 87.9688 25.0625C87.9062 25.2917 87.8333 25.5417 87.75 25.8125C87.6042 26.2292 87.4375 26.6562 87.25 27.0938C87.0833 27.8229 86.8854 28.5521 86.6562 29.2812C86.4271 30.0104 86.2083 30.7292 86 31.4375C85.7917 32.3333 85.625 33.1562 85.5 33.9062C85.3958 34.6562 85.3438 35.3438 85.3438 35.9688C85.3438 37.1354 85.3958 38 85.5 38.5625C85.625 39.125 85.7917 39.375 86 39.3125C86.2083 39.1875 86.4688 39.0417 86.7812 38.875C87.0938 38.6875 87.4583 38.4792 87.875 38.25C88.25 37.8542 88.6667 37.3646 89.125 36.7812C89.6042 36.1979 90.1771 35.5104 90.8438 34.7188C91.2188 34.1354 91.6042 33.5625 92 33C92.1458 32.8333 92.3125 32.6354 92.5 32.4062C92.7083 32.1771 92.8958 31.9479 93.0625 31.7188C93.4583 30.7188 93.8958 29.9792 94.375 29.5C94.875 29 95.4271 28.75 96.0312 28.75C96.5729 28.75 97 28.8229 97.3125 28.9688C97.6458 29.0938 97.875 29.2917 98 29.5625C98.0625 29.7083 98.1146 29.9583 98.1562 30.3125C98.1979 30.6667 98.2188 31.1354 98.2188 31.7188C98.2188 31.9479 98.2604 32.2812 98.3438 32.7188C98.4479 33.1562 98.5 33.4792 98.5 33.6875C98.5 34.4583 98.6354 35.0417 98.9062 35.4375C99.1771 35.8125 99.5938 36 100.156 36C100.323 36 100.521 35.9688 100.75 35.9062C100.979 35.8438 101.208 35.7708 101.438 35.6875L102.688 38.5625C101.438 39.3125 100.406 39.8854 99.5938 40.2812C98.8021 40.6562 98.2083 40.8438 97.8125 40.8438C96.7708 40.8438 95.9167 40.5729 95.25 40.0312C94.5833 39.4896 94.0938 38.6875 93.7812 37.625C93.7396 37.375 93.6458 37.125 93.5 36.875C93.375 36.625 93.2083 36.375 93 36.125C92.8125 36.3333 92.5938 36.5833 92.3438 36.875C92.1146 37.1667 91.8646 37.4583 91.5938 37.75C91.0312 38.4375 90.4688 39.1146 89.9062 39.7812C89.3438 40.4271 88.7708 41.0729 88.1875 41.7188C87.4583 42.5729 86.7188 43.1979 85.9688 43.5938C85.2396 43.9688 84.5521 44.1562 83.9062 44.1562C82.9479 44.1562 82.1771 43.875 81.5938 43.3125C81.0104 42.7292 80.6354 41.875 80.4688 40.75C80.2812 39.6667 80.1562 38.8229 80.0938 38.2188C80.0312 37.6146 80.0208 37.25 80.0625 37.125C80.0208 36.5208 79.9583 36.0625 79.875 35.75C79.8125 35.4375 79.7083 35.2812 79.5625 35.2812L79.375 35.375L77.5938 37.2188C77.5312 37.3646 77.4271 37.5521 77.2812 37.7812C77.1354 37.9896 76.9375 38.25 76.6875 38.5625C76.6042 38.25 76.4583 37.8646 76.25 37.4062C76.0417 36.9479 75.7708 36.375 75.4375 35.6875Z" stroke="white"/>
            <path d="M101.438 35.6875C101.625 35.4792 101.812 35.2292 102 34.9375C102.188 34.625 102.438 34.2917 102.75 33.9375L104.812 32.125C104.896 32.0625 104.938 31.9792 104.938 31.875C104.958 31.7708 104.969 31.625 104.969 31.4375C104.948 31.1667 104.917 30.9479 104.875 30.7812C104.875 30.3021 104.969 29.5 105.156 28.375C105.344 27.25 105.51 26.5729 105.656 26.3438L105.469 25.75C105.74 24.3542 106.115 22.8333 106.594 21.1875C107.094 19.5208 107.656 17.7188 108.281 15.7812C108.49 15.4479 108.708 15.0312 108.938 14.5312C109.167 14.0104 109.427 13.4271 109.719 12.7812C110.073 11.6979 110.542 10.5625 111.125 9.375C111.708 8.1875 112.365 6.96875 113.094 5.71875C114.073 4.07292 114.938 2.83333 115.688 2C116.458 1.16667 117.146 0.75 117.75 0.75C118.958 0.75 119.781 0.989583 120.219 1.46875C120.677 1.92708 120.906 2.80208 120.906 4.09375C120.906 4.42708 120.844 4.94792 120.719 5.65625C120.615 6.34375 120.562 6.86458 120.562 7.21875C120.562 7.57292 120.448 8.07292 120.219 8.71875C119.99 9.36458 119.875 9.95833 119.875 10.5C119.854 10.6667 119.802 10.8333 119.719 11L119.75 11.4375C119.667 11.7292 119.542 12.0833 119.375 12.5C119.208 12.9167 118.99 13.4167 118.719 14C118.573 14.5208 118.385 15.125 118.156 15.8125C117.927 16.5 117.656 17.25 117.344 18.0625C117.219 18.2708 117.052 18.5312 116.844 18.8438C116.656 19.1354 116.448 19.4688 116.219 19.8438C116.156 20.1146 116.052 20.4271 115.906 20.7812C115.76 21.1354 115.562 21.5521 115.312 22.0312C115.188 22.2812 115.021 22.5521 114.812 22.8438C114.604 23.1354 114.354 23.5104 114.062 23.9688C113.938 24.1771 113.802 24.4375 113.656 24.75C113.51 25.0625 113.344 25.4167 113.156 25.8125C112.927 26.1667 112.625 26.6042 112.25 27.125C111.875 27.6458 111.448 28.2604 110.969 28.9688C110.323 30.1146 109.656 31.2083 108.969 32.25C108.969 34.2708 109.365 35.8021 110.156 36.8438C110.969 37.8646 112.177 38.375 113.781 38.375C113.885 38.375 114.198 38.3021 114.719 38.1562C115.24 38.0104 115.958 37.7812 116.875 37.4688C117.146 37.3021 117.469 37.0729 117.844 36.7812C118.219 36.4688 118.646 36.1042 119.125 35.6875L120.344 38.5625C119.802 39.0417 119.26 39.5312 118.719 40.0312C118.177 40.5312 117.625 41.0208 117.062 41.5C116.417 42.0417 115.76 42.4583 115.094 42.75C114.427 43.0208 113.771 43.1562 113.125 43.1562C112.792 43.1562 112.281 43.125 111.594 43.0625C110.906 42.9792 110.385 42.9375 110.031 42.9375C108.865 42.9375 107.896 42.4688 107.125 41.5312C106.375 40.5938 105.844 39.1875 105.531 37.3125C105.49 37.125 105.427 36.9583 105.344 36.8125C105.281 36.6667 105.156 36.5 104.969 36.3125C104.698 36.5833 104.375 36.9062 104 37.2812C103.646 37.6562 103.208 38.0833 102.688 38.5625L101.438 35.6875ZM116.344 11.1562L116.125 11.0312C114.958 12.1562 114.073 13.2188 113.469 14.2188C112.885 15.2188 112.594 16.1875 112.594 17.125C112.594 17.2708 112.521 17.5208 112.375 17.875C112.25 18.2083 112.052 18.6458 111.781 19.1875C111.448 19.8333 111.104 20.5417 110.75 21.3125C110.354 22.4792 110.052 23.4271 109.844 24.1562C109.635 24.8854 109.531 25.4062 109.531 25.7188L109.719 25.9688C109.906 25.9479 110.135 25.7604 110.406 25.4062C110.677 25.0521 110.99 24.5312 111.344 23.8438C111.51 23.4688 111.75 23.0312 112.062 22.5312C112.375 22.0312 112.729 21.4375 113.125 20.75C113.458 20.2917 113.99 19.1146 114.719 17.2188C115.448 15.3229 115.844 14.1146 115.906 13.5938C115.927 13.1771 115.979 12.7708 116.062 12.375C116.167 11.9583 116.26 11.5521 116.344 11.1562Z" stroke="white"/>
            <path d="M147.031 27.4688C147.031 27.8854 147.323 28.4479 147.906 29.1562C148.51 29.8438 149.406 30.6979 150.594 31.7188C151.365 32.3646 152.156 33 152.969 33.625C153.802 34.2292 154.625 34.8438 155.438 35.4688C155.792 35.7604 156.25 36.1458 156.812 36.625C157.375 37.0833 158.031 37.625 158.781 38.25C159.323 38.6667 159.885 39.0833 160.469 39.5C161.073 39.9167 161.719 40.3333 162.406 40.75C162.865 41.1042 163.375 41.4896 163.938 41.9062C164.5 42.3229 165.146 42.7708 165.875 43.25C166.292 43.5 166.615 43.9583 166.844 44.625C167.073 45.2708 167.208 46.1146 167.25 47.1562L166.969 47.9688L166.656 48.125C166.448 48.125 166.167 48.0312 165.812 47.8438C165.479 47.6771 165.052 47.4271 164.531 47.0938C164.427 47.0312 163.948 46.8021 163.094 46.4062C162.26 46.0104 161.052 45.4479 159.469 44.7188C158.594 44.3438 157.792 43.9271 157.062 43.4688C156.333 42.9896 155.667 42.4896 155.062 41.9688C154.708 41.6562 154.25 41.3125 153.688 40.9375C153.146 40.5625 152.5 40.1562 151.75 39.7188C150.979 39.2812 150.312 38.8646 149.75 38.4688C149.188 38.0729 148.74 37.7396 148.406 37.4688C147.281 36.5521 146.365 35.8542 145.656 35.375C144.948 34.8958 144.458 34.6562 144.188 34.6562C143.979 34.9479 143.865 35.25 143.844 35.5625C143.594 36.5417 143.323 37.7812 143.031 39.2812C142.76 40.7604 142.458 42.4896 142.125 44.4688C142.125 44.8229 142.062 45.0833 141.938 45.25C141.812 45.4375 141.625 45.5312 141.375 45.5312C140.562 45.5312 139.948 45.3333 139.531 44.9375C139.115 44.5417 138.906 43.9479 138.906 43.1562C138.906 42.0938 138.969 40.9792 139.094 39.8125C139.24 38.6458 139.469 37.4167 139.781 36.125C139.885 35.5625 139.958 35.0625 140 34.625C140.062 34.1667 140.094 33.75 140.094 33.375C140.094 32.4167 139.677 31.5938 138.844 30.9062C138.031 30.2188 137.625 29.7292 137.625 29.4375C137.625 28.9792 137.688 28.5833 137.812 28.25C137.958 27.8958 138.167 27.6146 138.438 27.4062C139.125 26.9688 139.76 26.5521 140.344 26.1562C140.49 26.0729 140.583 25.9375 140.625 25.75C140.688 25.5417 140.719 25.2604 140.719 24.9062C140.719 24.6979 140.719 24.4792 140.719 24.25C140.719 24 140.719 23.7708 140.719 23.5625C140.781 21.7083 140.833 19.7812 140.875 17.7812C140.875 17.6354 140.875 17.4062 140.875 17.0938C140.875 16.7812 140.854 16.375 140.812 15.875C140.771 15.5 140.76 15.1562 140.781 14.8438C140.802 14.5104 140.812 14.2083 140.812 13.9375C140.688 13.5208 140.573 13.1667 140.469 12.875C140.385 12.5625 140.344 12.2708 140.344 12C140.344 11.75 140.365 11.3646 140.406 10.8438C140.448 10.3021 140.469 9.91667 140.469 9.6875C140.469 9.39583 140.438 8.98958 140.375 8.46875C140.333 7.94792 140.312 7.55208 140.312 7.28125C140.312 6.53125 140.479 5.8125 140.812 5.125C141.167 4.4375 141.698 3.76042 142.406 3.09375C143.094 2.51042 143.792 2.07292 144.5 1.78125C145.229 1.46875 145.969 1.3125 146.719 1.3125C147.073 1.3125 147.594 1.34375 148.281 1.40625C148.99 1.44792 149.542 1.46875 149.938 1.46875C150.208 1.46875 150.948 1.69792 152.156 2.15625C152.635 2.19792 153.062 2.26042 153.438 2.34375C153.812 2.40625 154.115 2.47917 154.344 2.5625C154.865 2.8125 155.271 3.01042 155.562 3.15625C155.854 3.28125 156.062 3.35417 156.188 3.375C156.542 3.5 156.844 3.60417 157.094 3.6875C157.365 3.77083 157.583 3.875 157.75 4C158.021 4.125 158.333 4.27083 158.688 4.4375C159.062 4.60417 159.479 4.79167 159.938 5C160.688 5.375 161.385 5.8125 162.031 6.3125C162.698 6.8125 163.323 7.35417 163.906 7.9375C164.573 8.6875 165.073 9.42708 165.406 10.1562C165.74 10.8646 165.906 11.5729 165.906 12.2812C165.906 12.4896 165.885 12.7917 165.844 13.1875C165.823 13.5625 165.771 13.9896 165.688 14.4688C165.625 15.0729 165.312 15.7292 164.75 16.4375C164.188 17.125 163.375 17.8854 162.312 18.7188C161.375 19.4479 160.5 20.0625 159.688 20.5625C158.875 21.0417 158.125 21.3854 157.438 21.5938C157.167 21.7812 156.958 21.9583 156.812 22.125C156.604 22.3333 156.167 22.625 155.5 23C154.833 23.375 153.927 23.8438 152.781 24.4062C150.698 25.4271 149.219 26.1042 148.344 26.4375C147.469 26.75 147.031 27.0938 147.031 27.4688ZM143.75 12.4062C144.146 12.1146 144.521 11.8333 144.875 11.5625C145.229 11.2708 145.688 11.125 146.25 11.125C146.5 11.125 146.802 11.4062 147.156 11.9688C147.531 12.5104 147.719 12.9167 147.719 13.1875C147.719 13.3333 147.667 13.6667 147.562 14.1875C147.458 14.7083 147.292 15.4167 147.062 16.3125C146.583 18.3333 146.312 19.6042 146.25 20.125C146.188 20.625 146.052 21.4167 145.844 22.5C145.76 22.7708 145.677 23.125 145.594 23.5625C145.594 23.75 145.625 23.8854 145.688 23.9688C145.771 24.0521 145.875 24.0938 146 24.0938C150.146 22.0104 152.292 20.9271 152.438 20.8438C152.604 20.8021 152.781 20.75 152.969 20.6875C153.156 20.6042 153.333 20.5208 153.5 20.4375L153.969 19.8438C155.177 19.0729 156.427 18.25 157.719 17.375C158.531 16.75 159.135 16.1354 159.531 15.5312C159.927 14.9271 160.125 14.3229 160.125 13.7188C160.125 12.9479 159.677 12.1875 158.781 11.4375C157.885 10.6875 156.542 9.96875 154.75 9.28125C153.229 8.67708 151.844 8.23958 150.594 7.96875C149.344 7.67708 148.208 7.53125 147.188 7.53125C145.854 7.53125 144.844 7.77083 144.156 8.25C143.49 8.70833 143.156 9.39583 143.156 10.3125C143.156 11.0208 143.208 11.5625 143.312 11.9375C143.417 12.2917 143.562 12.4479 143.75 12.4062Z" stroke="white"/>
            <path d="M165.625 34.3125L168.469 32.4375C168.573 32.3333 168.698 32.1979 168.844 32.0312C168.99 31.8438 169.156 31.5833 169.344 31.25C169.49 30.9792 169.677 30.75 169.906 30.5625C170.156 30.375 170.438 30.2083 170.75 30.0625C170.917 29.8542 171.156 29.5938 171.469 29.2812C171.781 28.9688 172.177 28.6042 172.656 28.1875C172.885 28.0625 173.177 27.8854 173.531 27.6562C173.885 27.4062 174.271 27.0833 174.688 26.6875C176.583 24.8958 178.24 23.5521 179.656 22.6562C181.094 21.7604 182.302 21.3125 183.281 21.3125C183.823 21.3125 184.219 21.4271 184.469 21.6562C184.74 21.8854 184.875 22.2083 184.875 22.625C184.875 23.0625 184.792 23.4479 184.625 23.7812C184.479 24.1146 184.24 24.3958 183.906 24.625C183.385 25 182.823 25.4167 182.219 25.875C181.885 26.3125 181.479 26.7812 181 27.2812C180.521 27.7604 179.958 28.2396 179.312 28.7188C179.104 28.9896 178.927 29.2292 178.781 29.4375C178.677 29.5417 178.479 29.7292 178.188 30C177.896 30.2708 177.51 30.5833 177.031 30.9375C176.823 31.3958 176.365 31.9896 175.656 32.7188C174.969 33.4479 174.042 34.3229 172.875 35.3438C172.729 35.4896 172.469 35.8229 172.094 36.3438C171.719 36.8646 171.229 37.5521 170.625 38.4062L170.844 38.6875C171.302 38.5417 171.781 38.2917 172.281 37.9375C172.781 37.5833 173.333 37.1146 173.938 36.5312C174.646 35.8854 175.219 35.3646 175.656 34.9688C176.115 34.5521 176.438 34.2812 176.625 34.1562C176.771 34.0729 176.917 33.9896 177.062 33.9062C177.208 33.8229 177.375 33.7188 177.562 33.5938C178.521 32.4479 179.417 31.6042 180.25 31.0625C181.083 30.5 181.854 30.2188 182.562 30.2188C183 30.2188 183.333 30.3958 183.562 30.75C183.792 31.0833 183.927 31.5938 183.969 32.2812C183.927 33.3229 183.906 34.3229 183.906 35.2812C183.885 35.9479 184.062 36.5521 184.438 37.0938C184.833 37.6146 185.344 37.875 185.969 37.875C186.156 37.875 186.333 37.8229 186.5 37.7188C186.688 37.6146 186.875 37.4792 187.062 37.3125C187.208 37.125 187.344 36.9479 187.469 36.7812C187.615 36.6146 187.76 36.4479 187.906 36.2812C187.99 36.2396 188.104 36.1667 188.25 36.0625C188.417 35.9583 188.573 35.8333 188.719 35.6875C189.01 36.3125 189.25 36.8646 189.438 37.3438C189.646 37.8021 189.802 38.2083 189.906 38.5625C189.427 39 188.948 39.4583 188.469 39.9375C188.01 40.3958 187.521 40.8333 187 41.25C186.375 41.7292 185.771 42.0938 185.188 42.3438C184.604 42.5729 184.021 42.6875 183.438 42.6875C182.083 42.6875 181.042 42.3021 180.312 41.5312C179.583 40.7604 179.156 39.5938 179.031 38.0312C179.031 37.8438 179 37.6562 178.938 37.4688C178.896 37.2604 178.792 37.0521 178.625 36.8438C178.521 36.9479 178.406 37.0625 178.281 37.1875C178.156 37.2917 178.01 37.4375 177.844 37.625C177.573 37.8333 177.229 38.0938 176.812 38.4062C176.417 38.7188 175.948 39.0938 175.406 39.5312C174.677 40.2812 174.062 40.8958 173.562 41.375C173.062 41.8542 172.708 42.1979 172.5 42.4062C172.083 42.7604 171.594 43.1146 171.031 43.4688C170.49 43.8229 169.875 44.1875 169.188 44.5625C168.75 44.7917 168.375 44.9688 168.062 45.0938C167.75 45.2396 167.521 45.3125 167.375 45.3125C166.375 45.3125 165.635 45.0729 165.156 44.5938C164.677 44.0938 164.438 43.3333 164.438 42.3125C164.438 41.75 164.562 41.2188 164.812 40.7188C165.042 40.1979 165.396 39.6979 165.875 39.2188C165.917 38.9479 165.938 38.7292 165.938 38.5625C165.938 38.4583 165.906 38.3542 165.844 38.25C165.802 38.125 165.74 37.9896 165.656 37.8438C165.531 37.5521 165.396 37.2292 165.25 36.875C165.083 36.5 164.906 36.1042 164.719 35.6875C164.802 35.6042 164.927 35.4479 165.094 35.2188C165.24 34.9688 165.417 34.6667 165.625 34.3125Z" stroke="white"/>
            <path d="M188.688 35.6875C188.771 35.5417 188.885 35.3854 189.031 35.2188C189.156 35.0312 189.312 34.8125 189.5 34.5625C189.708 34.3958 189.979 34.1562 190.312 33.8438C190.646 33.5312 191.021 33.1667 191.438 32.75C191.812 32.3333 192.271 31.8229 192.812 31.2188C193.354 30.5938 194.01 29.8438 194.781 28.9688C195.115 28.6146 195.531 28.1667 196.031 27.625C196.531 27.0625 197.125 26.3958 197.812 25.625C198.396 24.9375 199.021 24.4271 199.688 24.0938C200.354 23.7604 201.062 23.5938 201.812 23.5938C202.562 23.5938 203.115 23.8333 203.469 24.3125C203.823 24.7708 204 25.4479 204 26.3438C204 26.8229 203.823 27.7396 203.469 29.0938C203.115 30.4479 202.562 32.2396 201.812 34.4688C201.625 34.8854 201.448 35.2812 201.281 35.6562C201.156 35.9271 201.073 36.1667 201.031 36.375C200.99 36.5833 200.969 36.7396 200.969 36.8438C200.969 36.9688 201.042 37.125 201.188 37.3125C201.292 37.25 201.385 37.1667 201.469 37.0625C201.573 36.9583 201.688 36.8333 201.812 36.6875C201.979 36.375 202.229 36.0521 202.562 35.7188C202.917 35.3646 203.333 34.9792 203.812 34.5625C204 34.2083 204.24 33.8646 204.531 33.5312C204.844 33.1771 205.188 32.8542 205.562 32.5625C205.646 32.4792 205.75 32.3438 205.875 32.1562C206.021 31.9688 206.188 31.7708 206.375 31.5625C206.646 31.2917 206.969 31.0104 207.344 30.7188C207.719 30.4271 208.156 30.125 208.656 29.8125C209.219 29.5208 209.719 29.2917 210.156 29.125C210.615 28.9583 211.01 28.875 211.344 28.875C211.99 28.875 212.562 29.0312 213.062 29.3438C213.562 29.6562 213.99 30.1458 214.344 30.8125C214.76 32.1042 215.156 33.3021 215.531 34.4062C215.76 35.0521 216.01 35.5312 216.281 35.8438C216.573 36.1562 216.896 36.3125 217.25 36.3125C217.521 36.3125 217.76 36.2604 217.969 36.1562C218.198 36.0521 218.406 35.8958 218.594 35.6875L219.844 38.5625C219.49 38.8542 219.125 39.1562 218.75 39.4688C218.375 39.7812 218.01 40.0833 217.656 40.375C217.177 40.8125 216.729 41.125 216.312 41.3125C215.896 41.4792 215.479 41.5625 215.062 41.5625C214.583 41.5625 214.125 41.4583 213.688 41.25C213.25 41.0417 212.875 40.7292 212.562 40.3125C212.396 40.1458 212.188 39.8438 211.938 39.4062C211.688 38.9479 211.396 38.3854 211.062 37.7188C210.792 37.4479 210.479 37.0938 210.125 36.6562C209.792 36.1979 209.396 35.6667 208.938 35.0625L208.656 34.9688C208.26 35.0938 207.865 35.2812 207.469 35.5312C207.094 35.7812 206.688 36.1042 206.25 36.5C205.312 37.3333 204.635 37.8542 204.219 38.0625C203.802 38.2708 203.521 38.5104 203.375 38.7812C203.083 39.2812 202.583 39.9271 201.875 40.7188C201.167 41.5104 200.281 42.4479 199.219 43.5312C198.948 43.8021 198.677 44.0729 198.406 44.3438C198.135 44.5938 197.865 44.8438 197.594 45.0938C197.323 45.3229 197.01 45.4792 196.656 45.5625C196.323 45.6667 195.948 45.7188 195.531 45.7188C194.698 45.7188 194.24 45.4375 194.156 44.875C194.094 44.2917 194.031 43.7083 193.969 43.125C194.281 42.25 194.635 41.1562 195.031 39.8438C195.427 38.5312 195.885 37 196.406 35.25C196.406 35.1458 196.438 35.0104 196.5 34.8438C196.583 34.6562 196.677 34.4167 196.781 34.125C196.885 33.8542 196.958 33.625 197 33.4375C197.042 33.2292 197.062 33.0521 197.062 32.9062C197.062 32.7604 197.01 32.6458 196.906 32.5625C196.802 32.4792 196.635 32.4375 196.406 32.4375C196.198 32.4375 195.917 32.5625 195.562 32.8125C195.229 33.0625 194.823 33.4583 194.344 34C193.76 34.625 193.292 35.1146 192.938 35.4688C192.583 35.8229 192.344 36.0312 192.219 36.0938C192.01 36.2396 191.76 36.4479 191.469 36.7188C191.198 36.9896 190.885 37.2917 190.531 37.625C190.49 37.7083 190.427 37.8333 190.344 38C190.26 38.1667 190.125 38.3542 189.938 38.5625C189.854 38.25 189.708 37.8646 189.5 37.4062C189.292 36.9479 189.021 36.375 188.688 35.6875Z" stroke="white"/>
            <path d="M218.562 35.6875C218.958 35.2917 219.552 34.7292 220.344 34C221.156 33.25 222.177 32.3333 223.406 31.25C223.531 31.1458 223.844 30.8021 224.344 30.2188C224.844 29.6354 225.562 28.8021 226.5 27.7188C226.938 27.2812 227.469 26.7188 228.094 26.0312C228.719 25.3438 229.427 24.5312 230.219 23.5938C230.74 22.8854 231.25 22.3438 231.75 21.9688C232.271 21.5938 232.771 21.4062 233.25 21.4062C233.854 21.4062 234.292 21.5625 234.562 21.875C234.854 22.1667 235 22.5938 235 23.1562C235 23.5104 234.948 24.0312 234.844 24.7188C234.74 25.4062 234.688 25.9271 234.688 26.2812C234.688 26.8646 234.594 27.8854 234.406 29.3438C234.24 30.8021 233.969 32.6979 233.594 35.0312C233.573 35.1771 233.521 35.4271 233.438 35.7812C233.375 36.1146 233.271 36.5625 233.125 37.125C233 37.5417 232.917 37.9271 232.875 38.2812C232.833 38.6354 232.812 38.9375 232.812 39.1875C232.833 39.3542 232.844 39.4896 232.844 39.5938C233.865 38.8438 234.75 38.1458 235.5 37.5C236.271 36.8542 236.906 36.25 237.406 35.6875L238.656 38.5625C238.448 38.6667 236.99 39.9583 234.281 42.4375C234.156 42.8125 233.875 43.2083 233.438 43.625C233.021 44.0417 232.448 44.4688 231.719 44.9062C231.51 45.2604 231.26 45.7188 230.969 46.2812C230.677 46.8646 230.344 47.5417 229.969 48.3125C229.76 48.875 229.573 49.4062 229.406 49.9062C229.26 50.4271 229.135 50.8854 229.031 51.2812C228.823 52.1146 228.458 53.1042 227.938 54.25C227.417 55.3958 226.781 56.7292 226.031 58.25C225.115 60.0625 224.292 61.4167 223.562 62.3125C222.854 63.2083 222.26 63.6458 221.781 63.625C221.281 63.5833 220.875 63.5417 220.562 63.5C220.271 63.4792 220.083 63.4479 220 63.4062C219.812 63.2812 219.688 63.0625 219.625 62.75C219.542 62.4583 219.5 62.0729 219.5 61.5938C219.5 61.2812 219.552 60.7917 219.656 60.125C219.76 59.4792 219.917 58.6771 220.125 57.7188C220.271 57.0521 220.458 56.3958 220.688 55.75C220.938 55.125 221.219 54.5 221.531 53.875C221.802 53.2708 222.083 52.6875 222.375 52.125C222.667 51.5625 222.969 50.9583 223.281 50.3125C223.969 49.4792 224.635 48.5729 225.281 47.5938C225.948 46.6146 226.615 45.5521 227.281 44.4062C227.406 43.9688 227.531 43.4167 227.656 42.75C227.802 42.0625 227.948 41.25 228.094 40.3125C228.281 39.3125 228.438 38.3958 228.562 37.5625C228.667 36.8542 228.75 36.2917 228.812 35.875C228.896 35.4583 228.927 35.1771 228.906 35.0312L228.719 33.4062L229.25 31.7188C229.167 31.4688 229.052 31.2812 228.906 31.1562C228.781 31.0104 228.635 30.9375 228.469 30.9375C228.073 30.9375 227.698 31.0417 227.344 31.25C226.99 31.4583 226.656 31.7604 226.344 32.1562C225.99 32.6354 225.552 33.1458 225.031 33.6875C224.51 34.2083 223.896 34.7917 223.188 35.4375C222.312 36.2292 221.594 36.8854 221.031 37.4062C220.469 37.9062 220.062 38.2917 219.812 38.5625C219.708 38.2917 219.583 37.9688 219.438 37.5938C219.271 37.2188 219.104 36.7812 218.938 36.2812C218.896 36.1562 218.844 36.0417 218.781 35.9375C218.719 35.8333 218.646 35.75 218.562 35.6875ZM238.406 6.8125C238.885 6.8125 239.229 6.91667 239.438 7.125C239.667 7.33333 239.781 7.63542 239.781 8.03125C239.781 8.44792 239.698 8.94792 239.531 9.53125C239.365 10.1146 239.125 10.7604 238.812 11.4688C238.562 12.0521 238.333 12.6042 238.125 13.125C237.979 13.4792 237.49 13.9375 236.656 14.5C235.844 15.0417 235.229 15.3125 234.812 15.3125C234.25 15.3125 233.771 15.2812 233.375 15.2188C233 15.1354 232.708 15.0208 232.5 14.875C232.312 14.7292 232.156 14.4688 232.031 14.0938C231.927 13.6979 231.875 13.1979 231.875 12.5938C231.875 11.6146 232.708 10.4062 234.375 8.96875C236.042 7.53125 237.385 6.8125 238.406 6.8125Z" stroke="white"/>
            <path d="M238.375 34.3125L241.219 32.4375C241.323 32.3333 241.448 32.1979 241.594 32.0312C241.74 31.8438 241.906 31.5833 242.094 31.25C242.24 30.9792 242.427 30.75 242.656 30.5625C242.906 30.375 243.188 30.2083 243.5 30.0625C243.667 29.8542 243.906 29.5938 244.219 29.2812C244.531 28.9688 244.927 28.6042 245.406 28.1875C245.635 28.0625 245.927 27.8854 246.281 27.6562C246.635 27.4062 247.021 27.0833 247.438 26.6875C249.333 24.8958 250.99 23.5521 252.406 22.6562C253.844 21.7604 255.052 21.3125 256.031 21.3125C256.573 21.3125 256.969 21.4271 257.219 21.6562C257.49 21.8854 257.625 22.2083 257.625 22.625C257.625 23.0625 257.542 23.4479 257.375 23.7812C257.229 24.1146 256.99 24.3958 256.656 24.625C256.135 25 255.573 25.4167 254.969 25.875C254.635 26.3125 254.229 26.7812 253.75 27.2812C253.271 27.7604 252.708 28.2396 252.062 28.7188C251.854 28.9896 251.677 29.2292 251.531 29.4375C251.427 29.5417 251.229 29.7292 250.938 30C250.646 30.2708 250.26 30.5833 249.781 30.9375C249.573 31.3958 249.115 31.9896 248.406 32.7188C247.719 33.4479 246.792 34.3229 245.625 35.3438C245.479 35.4896 245.219 35.8229 244.844 36.3438C244.469 36.8646 243.979 37.5521 243.375 38.4062L243.594 38.6875C244.052 38.5417 244.531 38.2917 245.031 37.9375C245.531 37.5833 246.083 37.1146 246.688 36.5312C247.396 35.8854 247.969 35.3646 248.406 34.9688C248.865 34.5521 249.188 34.2812 249.375 34.1562C249.521 34.0729 249.667 33.9896 249.812 33.9062C249.958 33.8229 250.125 33.7188 250.312 33.5938C251.271 32.4479 252.167 31.6042 253 31.0625C253.833 30.5 254.604 30.2188 255.312 30.2188C255.75 30.2188 256.083 30.3958 256.312 30.75C256.542 31.0833 256.677 31.5938 256.719 32.2812C256.677 33.3229 256.656 34.3229 256.656 35.2812C256.635 35.9479 256.812 36.5521 257.188 37.0938C257.583 37.6146 258.094 37.875 258.719 37.875C258.906 37.875 259.083 37.8229 259.25 37.7188C259.438 37.6146 259.625 37.4792 259.812 37.3125C259.958 37.125 260.094 36.9479 260.219 36.7812C260.365 36.6146 260.51 36.4479 260.656 36.2812C260.74 36.2396 260.854 36.1667 261 36.0625C261.167 35.9583 261.323 35.8333 261.469 35.6875C261.76 36.3125 262 36.8646 262.188 37.3438C262.396 37.8021 262.552 38.2083 262.656 38.5625C262.177 39 261.698 39.4583 261.219 39.9375C260.76 40.3958 260.271 40.8333 259.75 41.25C259.125 41.7292 258.521 42.0938 257.938 42.3438C257.354 42.5729 256.771 42.6875 256.188 42.6875C254.833 42.6875 253.792 42.3021 253.062 41.5312C252.333 40.7604 251.906 39.5938 251.781 38.0312C251.781 37.8438 251.75 37.6562 251.688 37.4688C251.646 37.2604 251.542 37.0521 251.375 36.8438C251.271 36.9479 251.156 37.0625 251.031 37.1875C250.906 37.2917 250.76 37.4375 250.594 37.625C250.323 37.8333 249.979 38.0938 249.562 38.4062C249.167 38.7188 248.698 39.0938 248.156 39.5312C247.427 40.2812 246.812 40.8958 246.312 41.375C245.812 41.8542 245.458 42.1979 245.25 42.4062C244.833 42.7604 244.344 43.1146 243.781 43.4688C243.24 43.8229 242.625 44.1875 241.938 44.5625C241.5 44.7917 241.125 44.9688 240.812 45.0938C240.5 45.2396 240.271 45.3125 240.125 45.3125C239.125 45.3125 238.385 45.0729 237.906 44.5938C237.427 44.0938 237.188 43.3333 237.188 42.3125C237.188 41.75 237.312 41.2188 237.562 40.7188C237.792 40.1979 238.146 39.6979 238.625 39.2188C238.667 38.9479 238.688 38.7292 238.688 38.5625C238.688 38.4583 238.656 38.3542 238.594 38.25C238.552 38.125 238.49 37.9896 238.406 37.8438C238.281 37.5521 238.146 37.2292 238 36.875C237.833 36.5 237.656 36.1042 237.469 35.6875C237.552 35.6042 237.677 35.4479 237.844 35.2188C237.99 34.9688 238.167 34.6667 238.375 34.3125Z" stroke="white"/>
            <path d="M261.438 35.6875C261.521 35.5417 261.635 35.3854 261.781 35.2188C261.906 35.0312 262.062 34.8125 262.25 34.5625C262.458 34.3958 262.729 34.1562 263.062 33.8438C263.396 33.5312 263.771 33.1667 264.188 32.75C264.562 32.3333 265.021 31.8229 265.562 31.2188C266.104 30.5938 266.76 29.8438 267.531 28.9688C267.865 28.6146 268.281 28.1667 268.781 27.625C269.281 27.0625 269.875 26.3958 270.562 25.625C271.146 24.9375 271.771 24.4271 272.438 24.0938C273.104 23.7604 273.812 23.5938 274.562 23.5938C275.312 23.5938 275.865 23.8333 276.219 24.3125C276.573 24.7708 276.75 25.4479 276.75 26.3438C276.75 26.8229 276.573 27.7396 276.219 29.0938C275.865 30.4479 275.312 32.2396 274.562 34.4688C274.375 34.8854 274.198 35.2812 274.031 35.6562C273.906 35.9271 273.823 36.1667 273.781 36.375C273.74 36.5833 273.719 36.7396 273.719 36.8438C273.719 36.9688 273.792 37.125 273.938 37.3125C274.042 37.25 274.135 37.1667 274.219 37.0625C274.323 36.9583 274.438 36.8333 274.562 36.6875C274.729 36.375 274.979 36.0521 275.312 35.7188C275.667 35.3646 276.083 34.9792 276.562 34.5625C276.75 34.2083 276.99 33.8646 277.281 33.5312C277.594 33.1771 277.938 32.8542 278.312 32.5625C278.396 32.4792 278.5 32.3438 278.625 32.1562C278.771 31.9688 278.938 31.7708 279.125 31.5625C279.396 31.2917 279.719 31.0104 280.094 30.7188C280.469 30.4271 280.906 30.125 281.406 29.8125C281.969 29.5208 282.469 29.2917 282.906 29.125C283.365 28.9583 283.76 28.875 284.094 28.875C284.74 28.875 285.312 29.0312 285.812 29.3438C286.312 29.6562 286.74 30.1458 287.094 30.8125C287.51 32.1042 287.906 33.3021 288.281 34.4062C288.51 35.0521 288.76 35.5312 289.031 35.8438C289.323 36.1562 289.646 36.3125 290 36.3125C290.271 36.3125 290.51 36.2604 290.719 36.1562C290.948 36.0521 291.156 35.8958 291.344 35.6875L292.594 38.5625C292.24 38.8542 291.875 39.1562 291.5 39.4688C291.125 39.7812 290.76 40.0833 290.406 40.375C289.927 40.8125 289.479 41.125 289.062 41.3125C288.646 41.4792 288.229 41.5625 287.812 41.5625C287.333 41.5625 286.875 41.4583 286.438 41.25C286 41.0417 285.625 40.7292 285.312 40.3125C285.146 40.1458 284.938 39.8438 284.688 39.4062C284.438 38.9479 284.146 38.3854 283.812 37.7188C283.542 37.4479 283.229 37.0938 282.875 36.6562C282.542 36.1979 282.146 35.6667 281.688 35.0625L281.406 34.9688C281.01 35.0938 280.615 35.2812 280.219 35.5312C279.844 35.7812 279.438 36.1042 279 36.5C278.062 37.3333 277.385 37.8542 276.969 38.0625C276.552 38.2708 276.271 38.5104 276.125 38.7812C275.833 39.2812 275.333 39.9271 274.625 40.7188C273.917 41.5104 273.031 42.4479 271.969 43.5312C271.698 43.8021 271.427 44.0729 271.156 44.3438C270.885 44.5938 270.615 44.8438 270.344 45.0938C270.073 45.3229 269.76 45.4792 269.406 45.5625C269.073 45.6667 268.698 45.7188 268.281 45.7188C267.448 45.7188 266.99 45.4375 266.906 44.875C266.844 44.2917 266.781 43.7083 266.719 43.125C267.031 42.25 267.385 41.1562 267.781 39.8438C268.177 38.5312 268.635 37 269.156 35.25C269.156 35.1458 269.188 35.0104 269.25 34.8438C269.333 34.6562 269.427 34.4167 269.531 34.125C269.635 33.8542 269.708 33.625 269.75 33.4375C269.792 33.2292 269.812 33.0521 269.812 32.9062C269.812 32.7604 269.76 32.6458 269.656 32.5625C269.552 32.4792 269.385 32.4375 269.156 32.4375C268.948 32.4375 268.667 32.5625 268.312 32.8125C267.979 33.0625 267.573 33.4583 267.094 34C266.51 34.625 266.042 35.1146 265.688 35.4688C265.333 35.8229 265.094 36.0312 264.969 36.0938C264.76 36.2396 264.51 36.4479 264.219 36.7188C263.948 36.9896 263.635 37.2917 263.281 37.625C263.24 37.7083 263.177 37.8333 263.094 38C263.01 38.1667 262.875 38.3542 262.688 38.5625C262.604 38.25 262.458 37.8646 262.25 37.4062C262.042 36.9479 261.771 36.375 261.438 35.6875Z" stroke="white"/>
            </svg>